<?xml version="1.0" standalone="no"?>
<!DOCTYPE svg PUBLIC "-//W3C//DTD SVG 20010904//EN"
 "http://www.w3.org/TR/2001/REC-SVG-20010904/DTD/svg10.dtd">
<svg version="1.0" xmlns="http://www.w3.org/2000/svg"
 width="1134.000000pt" height="1134.000000pt" viewBox="0 0 1134.000000 1134.000000"
 preserveAspectRatio="xMidYMid meet">
<metadata>
Created by potrace 1.11, written by Peter Selinger 2001-2013
</metadata>
<g transform="translate(0.000000,1134.000000) scale(0.100000,-0.100000)"
fill="#000000" stroke="none">
<path d="M278 8818 c4 -3 23 -15 42 -26 41 -23 342 -198 473 -276 77 -45 533
-310 563 -326 18 -11 51 -30 73 -44 22 -15 43 -26 46 -26 3 0 18 -8 33 -19 15
-10 126 -76 247 -146 369 -214 647 -376 980 -570 121 -71 301 -176 400 -233
99 -58 218 -127 265 -155 47 -27 99 -57 115 -67 17 -9 125 -72 240 -140 116
-67 269 -156 340 -198 72 -41 135 -78 140 -82 6 -5 30 -19 55 -32 25 -14 167
-96 315 -183 149 -87 306 -179 350 -204 405 -235 575 -336 575 -341 0 -6 -3
-7 -405 -240 -154 -90 -308 -180 -341 -200 -34 -21 -71 -41 -83 -45 -12 -3
-21 -11 -21 -16 0 -5 -4 -9 -9 -9 -7 0 -194 -106 -306 -173 -70 -43 -102 -62
-143 -84 -26 -15 -59 -33 -74 -42 -32 -19 -132 -78 -173 -101 -16 -10 -95 -56
-175 -102 -80 -47 -305 -178 -500 -292 -195 -114 -362 -212 -370 -217 -34 -21
-343 -199 -345 -199 -2 0 -34 -19 -71 -42 -58 -35 -345 -203 -464 -270 -19
-11 -141 -82 -270 -158 -129 -76 -251 -147 -270 -158 -19 -11 -222 -129 -450
-262 -469 -274 -476 -278 -510 -297 -14 -8 -45 -26 -71 -41 -25 -15 -80 -47
-122 -71 -42 -25 -75 -46 -73 -48 4 -5 10777 -5 10782 -1 1 2 -79 51 -179 110
-435 254 -1092 637 -1212 706 -71 41 -146 85 -165 97 -19 12 -55 33 -80 47
-25 14 -139 81 -255 148 -115 67 -223 130 -240 140 -16 9 -54 31 -83 49 -29
17 -57 31 -62 31 -4 0 -10 3 -12 8 -4 9 -217 132 -229 132 -5 0 -9 5 -9 10 0
6 -4 10 -9 10 -5 0 -67 34 -136 75 -70 41 -128 75 -130 75 -2 0 -70 39 -155
90 -42 25 -748 437 -765 446 -11 6 -164 96 -340 199 -176 103 -392 229 -480
280 -397 230 -700 407 -705 412 -6 6 -46 -18 395 238 204 119 377 219 385 224
47 28 509 298 528 308 24 13 105 61 210 125 35 21 65 38 68 38 2 0 21 11 42
23 20 13 57 35 82 49 44 25 252 147 420 245 127 74 637 372 695 405 28 16 57
33 65 38 28 17 164 96 635 370 259 150 498 290 532 311 34 22 64 39 67 39 2 0
51 28 108 62 94 56 248 146 323 188 68 39 481 281 495 290 8 6 22 13 30 17 37
17 174 103 165 104 -68 4 -10792 2 -10787 -3z"/>
</g>
</svg>
