<?xml version="1.0" encoding="UTF-8" standalone="no"?>
<!-- Created with Inkscape (http://www.inkscape.org/) -->

<svg
   xmlns:dc="http://purl.org/dc/elements/1.1/"
   xmlns:cc="http://creativecommons.org/ns#"
   xmlns:rdf="http://www.w3.org/1999/02/22-rdf-syntax-ns#"
   xmlns:svg="http://www.w3.org/2000/svg"
   xmlns="http://www.w3.org/2000/svg"
   xmlns:sodipodi="http://sodipodi.sourceforge.net/DTD/sodipodi-0.dtd"
   xmlns:inkscape="http://www.inkscape.org/namespaces/inkscape"
   width="80mm"
   height="80mm"
   viewBox="0 0 80.000002 80"
   version="1.1"
   id="svg8"
   inkscape:version="0.92.4 (5da689c313, 2019-01-14)"
   sodipodi:docname="8cm.svg">
  <defs
     id="defs2" />
  <sodipodi:namedview
     id="base"
     pagecolor="#ffffff"
     bordercolor="#666666"
     borderopacity="1.0"
     inkscape:pageopacity="0.0"
     inkscape:pageshadow="2"
     inkscape:zoom="1"
     inkscape:cx="358.26933"
     inkscape:cy="330.2171"
     inkscape:document-units="mm"
     inkscape:current-layer="layer1"
     showgrid="false"
     inkscape:snap-bbox="true"
     inkscape:bbox-paths="true"
     inkscape:bbox-nodes="true"
     inkscape:snap-bbox-edge-midpoints="true"
     inkscape:snap-bbox-midpoints="true"
     inkscape:object-paths="true"
     inkscape:snap-intersection-paths="true"
     inkscape:snap-smooth-nodes="true"
     inkscape:snap-midpoints="true"
     inkscape:window-width="1920"
     inkscape:window-height="1171"
     inkscape:window-x="3840"
     inkscape:window-y="0"
     inkscape:window-maximized="1"
     inkscape:snap-object-midpoints="true"
     inkscape:snap-center="true"
     inkscape:snap-text-baseline="true"
     inkscape:snap-global="true"
     fit-margin-top="0"
     fit-margin-left="0"
     fit-margin-right="0"
     fit-margin-bottom="0" />
  <metadata
     id="metadata5">
    <rdf:RDF>
      <cc:Work
         rdf:about="">
        <dc:format>image/svg+xml</dc:format>
        <dc:type
           rdf:resource="http://purl.org/dc/dcmitype/StillImage" />
        <dc:title></dc:title>
      </cc:Work>
    </rdf:RDF>
  </metadata>
  <g
     inkscape:label="Square BG (DISABLE!)"
     inkscape:groupmode="layer"
     id="layer1"
     transform="translate(560.27466,198.00928)"
     style="display:none">
    <rect
       style="opacity:1;fill:none;fill-opacity:1;stroke:none;stroke-width:1.34259593;stroke-miterlimit:4;stroke-dasharray:none;stroke-opacity:1"
       id="rect823"
       width="80"
       height="80"
       x="-560.27466"
       y="-198.00928" />
  </g>
  <g
     inkscape:groupmode="layer"
     id="layer3"
     inkscape:label="Dreiecke"
     transform="translate(-1.7968751e-6,-220)">
    <path
       style="display:inline;opacity:0.97600002;fill:#ff6906;fill-opacity:1;fill-rule:evenodd;stroke:#000000;stroke-width:0.70579082;stroke-linecap:square;stroke-linejoin:miter;stroke-miterlimit:100;stroke-dasharray:none;stroke-opacity:1;paint-order:normal"
       d="m 76.879486,248.64709 v 0 l -36.879481,10.97139 v 0 L 3.120519,248.64709 v 0 z"
       id="rect8417-7"
       inkscape:connector-curvature="0"
       sodipodi:nodetypes="ccccccc"
       inkscape:export-xdpi="29.916189"
       inkscape:export-ydpi="29.916189" />
    <path
       style="display:inline;opacity:0.97600002;fill:#ff6906;fill-opacity:1;fill-rule:evenodd;stroke:#000000;stroke-width:0.70579082;stroke-linecap:square;stroke-linejoin:miter;stroke-miterlimit:100;stroke-dasharray:none;stroke-opacity:1;paint-order:normal"
       d="m 3.1205217,270.58987 v 0 L 40.000005,259.61848 v 0 l 36.879481,10.97139 v 0 z"
       id="rect8417-3-0"
       inkscape:connector-curvature="0"
       sodipodi:nodetypes="ccccccc"
       inkscape:export-xdpi="29.916189"
       inkscape:export-ydpi="29.916189" />
  </g>
  <g
     inkscape:groupmode="layer"
     id="layer2"
     inkscape:label="SnakeSoft font"
     style="display:none"
     transform="translate(-1.7968751e-6,-220)">
    <text
       xml:space="preserve"
       style="font-style:normal;font-weight:normal;font-size:10.80441475px;line-height:6.75275898px;font-family:sans-serif;letter-spacing:0px;word-spacing:0px;display:inline;fill:#000000;fill-opacity:1;stroke:none;stroke-width:0.27011037px;stroke-linecap:butt;stroke-linejoin:miter;stroke-opacity:1"
       x="0.79753327"
       y="246.83644"
       id="text8437-0-6"
       inkscape:export-xdpi="29.916189"
       inkscape:export-ydpi="29.916189"><tspan
         sodipodi:role="line"
         id="tspan8435-3-9"
         x="0.79753327"
         y="246.83644"
         style="font-style:normal;font-variant:normal;font-weight:normal;font-stretch:normal;font-family:GonzalesSans;-inkscape-font-specification:GonzalesSans;stroke-width:0.27011037px">Snake</tspan></text>
    <text
       xml:space="preserve"
       style="font-style:normal;font-weight:normal;font-size:10.80441475px;line-height:6.75275898px;font-family:sans-serif;letter-spacing:0px;word-spacing:0px;display:inline;fill:#000000;fill-opacity:1;stroke:none;stroke-width:0.27011037px;stroke-linecap:butt;stroke-linejoin:miter;stroke-opacity:1"
       x="0.69668585"
       y="280.99789"
       id="text8437-2"
       inkscape:export-xdpi="29.916189"
       inkscape:export-ydpi="29.916189"><tspan
         sodipodi:role="line"
         id="tspan8435-1"
         x="0.69668585"
         y="280.99789"
         style="font-style:normal;font-variant:normal;font-weight:normal;font-stretch:normal;font-family:GonzalesSans;-inkscape-font-specification:GonzalesSans;letter-spacing:5.41623878px;stroke-width:0.27011037px">Soft</tspan></text>
  </g>
  <g
     inkscape:label="SnakeSoft vector"
     id="g835"
     inkscape:groupmode="layer"
     style="display:inline"
     transform="translate(-1.7968751e-6,-220)">
    <g
       aria-label="Snake"
       transform="matrix(0.2667556,0,0,0.2667556,149.4564,331.47964)"
       style="font-style:normal;font-weight:normal;font-size:40.50304794px;line-height:25.31440544px;font-family:sans-serif;letter-spacing:0px;word-spacing:0px;display:inline;fill:#000000;fill-opacity:1;stroke:none;stroke-width:1.01257622px;stroke-linecap:butt;stroke-linejoin:miter;stroke-opacity:1"
       id="text829">
      <path
         d="m -499.64907,-322.12602 v -10.6928 q 0,-0.97207 -0.40504,-1.86314 -0.36452,-0.89107 -1.01257,-1.53912 -0.64805,-0.64804 -1.53912,-1.01257 -0.85056,-0.40503 -1.82263,-0.40503 l -45.64694,0.0405 v -4.90087 h 50.38579 l 0.0405,-7.20954 h -52.81598 q -1.01258,0 -1.90364,0.40503 -0.85057,0.36453 -1.49862,1.01258 -0.64804,0.64804 -1.05307,1.53911 -0.36453,0.85057 -0.36453,1.86314 v 9.68023 q 0,1.01258 0.36453,1.90364 0.40503,0.85057 1.05307,1.49862 0.64805,0.64805 1.49862,1.05308 0.89106,0.36452 1.90364,0.36452 l 45.60643,-0.0405 v 5.91345 h -50.38579 v 7.20954 h 52.81598 q 0.97207,0 1.82263,-0.36453 0.89107,-0.40503 1.53912,-1.05308 0.64805,-0.64805 1.01257,-1.49861 0.40504,-0.89107 0.40504,-1.90365 z"
         style="font-style:normal;font-variant:normal;font-weight:normal;font-stretch:normal;font-family:GonzalesSans;-inkscape-font-specification:GonzalesSans;stroke-width:1.01257622px"
         id="path837"
         inkscape:connector-curvature="0" />
      <path
         d="m -440.40134,-321.59948 v -28.10911 h -7.20954 v 23.53227 l -39.12594,-22.51969 q -1.2556,-0.72906 -2.55169,-0.93157 -1.2961,-0.24302 -2.34918,0.1215 -1.01258,0.36453 -1.66063,1.41761 -0.64805,1.01258 -0.64805,2.79471 v 27.98761 h 7.20955 v -23.49177 l 39.12594,22.72221 q 1.2556,0.72905 2.51119,0.89107 1.2961,0.20251 2.30867,-0.16202 1.05308,-0.40503 1.70113,-1.4176 0.68855,-1.05308 0.68855,-2.83522 z"
         style="font-style:normal;font-variant:normal;font-weight:normal;font-stretch:normal;font-family:GonzalesSans;-inkscape-font-specification:GonzalesSans;stroke-width:1.01257622px"
         id="path839"
         inkscape:connector-curvature="0" />
      <path
         d="m -379.76827,-317.30615 -21.1426,-32.40244 h -11.01682 l -25.1929,32.40244 h 9.11319 l 21.58812,-27.78509 9.51822,15.26965 h -19.72499 l 6.03496,5.95394 h 16.84926 l 4.86037,6.5615 z"
         style="font-style:normal;font-variant:normal;font-weight:normal;font-stretch:normal;font-family:GonzalesSans;-inkscape-font-specification:GonzalesSans;stroke-width:1.01257622px"
         id="path841"
         inkscape:connector-curvature="0" />
      <path
         d="m -321.35717,-317.30615 -0.081,-4.77936 -37.50583,-11.50287 37.50583,-11.34085 0.081,-4.77936 h -7.25004 l -37.50583,12.51544 h -1.3771 v -12.51544 h -7.16904 v 32.40244 h 7.16904 v -12.71796 h 1.3771 l 37.50583,12.71796 z"
         style="font-style:normal;font-variant:normal;font-weight:normal;font-stretch:normal;font-family:GonzalesSans;-inkscape-font-specification:GonzalesSans;stroke-width:1.01257622px"
         id="path843"
         inkscape:connector-curvature="0" />
      <path
         d="m -263.36442,-317.30615 v -7.20954 h -46.33549 v -11.17885 l 8.99167,5.38691 30.13427,0.081 v -6.88552 h -39.12594 v -5.38691 h 46.33549 v -7.20954 l -48.72517,0.20251 q -1.01258,0 -1.90364,0.40504 -0.85057,0.36452 -1.49862,1.01257 -0.64805,0.64805 -1.05308,1.53912 -0.36452,0.85056 -0.36452,1.82263 v 22.6007 q 0,1.01258 0.36452,1.90365 0.40503,0.85056 1.05308,1.49861 0.64805,0.64805 1.49862,1.05308 0.89106,0.36453 1.90364,0.36453 z"
         style="font-style:normal;font-variant:normal;font-weight:normal;font-stretch:normal;font-family:GonzalesSans;-inkscape-font-specification:GonzalesSans;stroke-width:1.01257622px"
         id="path845"
         inkscape:connector-curvature="0" />
    </g>
    <g
       aria-label="Soft"
       transform="matrix(0.2667556,0,0,0.2667556,149.4564,331.47964)"
       style="font-style:normal;font-weight:normal;font-size:40.50304794px;line-height:25.31440544px;font-family:sans-serif;letter-spacing:0px;word-spacing:0px;display:inline;fill:#000000;fill-opacity:1;stroke:none;stroke-width:1.01257622px;stroke-linecap:butt;stroke-linejoin:miter;stroke-opacity:1"
       id="text833">
      <path
         d="m -500.02713,-194.06333 v -10.69281 q 0,-0.97207 -0.40503,-1.86314 -0.36452,-0.89106 -1.01257,-1.53911 -0.64805,-0.64805 -1.53912,-1.01258 -0.85056,-0.40503 -1.82264,-0.40503 l -45.64693,0.0405 v -4.90087 h 50.38579 l 0.0405,-7.20954 h -52.81597 q -1.01258,0 -1.90364,0.40503 -0.85057,0.36453 -1.49862,1.01258 -0.64805,0.64805 -1.05308,1.53911 -0.36452,0.85057 -0.36452,1.86315 v 9.68022 q 0,1.01258 0.36452,1.90365 0.40503,0.85056 1.05308,1.49861 0.64805,0.64805 1.49862,1.05308 0.89106,0.36453 1.90364,0.36453 l 45.60643,-0.0405 v 5.91345 h -50.38579 v 7.20954 h 52.81597 q 0.97208,0 1.82264,-0.36453 0.89107,-0.40503 1.53912,-1.05308 0.64805,-0.64804 1.01257,-1.49861 0.40503,-0.89107 0.40503,-1.90364 z"
         style="font-style:normal;font-variant:normal;font-weight:normal;font-stretch:normal;font-family:GonzalesSans;-inkscape-font-specification:GonzalesSans;letter-spacing:20.30412483px;stroke-width:1.01257622px"
         id="path848"
         inkscape:connector-curvature="0" />
      <path
         d="m -420.41447,-194.06333 v -22.76271 q 0,-1.01258 -0.40503,-1.86315 -0.36452,-0.89106 -1.01257,-1.53911 -0.64805,-0.64805 -1.53912,-1.01258 -0.85056,-0.40503 -1.86314,-0.40503 h -43.9053 q -1.01258,0 -1.90365,0.40503 -0.85056,0.36453 -1.49861,1.01258 -0.64805,0.64805 -1.05308,1.53911 -0.36453,0.85057 -0.36453,1.86315 v 22.76271 q 0,1.01257 0.36453,1.90364 0.40503,0.85057 1.05308,1.49861 0.64805,0.64805 1.49861,1.05308 0.89107,0.36453 1.90365,0.36453 h 43.9053 q 1.01258,0 1.86314,-0.36453 0.89107,-0.40503 1.53912,-1.05308 0.64805,-0.64804 1.01257,-1.49861 0.40503,-0.89107 0.40503,-1.90364 z m -7.20954,-2.38968 h -39.12594 v -17.98336 h 39.12594 z"
         style="font-style:normal;font-variant:normal;font-weight:normal;font-stretch:normal;font-family:GonzalesSans;-inkscape-font-specification:GonzalesSans;letter-spacing:20.30412483px;stroke-width:1.01257622px"
         id="path850"
         inkscape:connector-curvature="0" />
      <path
         d="m -340.03485,-214.27435 v -7.25005 l -48.44165,0.081 q -0.97207,0 -1.86314,0.40503 -0.85056,0.36453 -1.49861,1.01257 -0.64805,0.64805 -1.05308,1.53912 -0.36453,0.85056 -0.36453,1.82264 v 27.42056 h 7.16904 v -15.87719 l 8.95117,5.3869 29.93176,0.0405 v -6.80451 h -38.88293 v -7.77658 z"
         style="font-style:normal;font-variant:normal;font-weight:normal;font-stretch:normal;font-family:GonzalesSans;-inkscape-font-specification:GonzalesSans;letter-spacing:20.30412483px;stroke-width:1.01257622px"
         id="path852"
         inkscape:connector-curvature="0" />
      <path
         d="m -263.90362,-214.59838 v -7.04753 h -53.74755 v 7.12854 h 23.16774 v 25.2739 h 7.20955 v -25.2739 z"
         style="font-style:normal;font-variant:normal;font-weight:normal;font-stretch:normal;font-family:GonzalesSans;-inkscape-font-specification:GonzalesSans;letter-spacing:20.30412483px;stroke-width:1.01257622px"
         id="path854"
         inkscape:connector-curvature="0" />
    </g>
  </g>
</svg>
