<?xml version="1.0" encoding="UTF-8" standalone="no"?>
<!-- Created with Inkscape (http://www.inkscape.org/) -->

<svg
   xmlns:dc="http://purl.org/dc/elements/1.1/"
   xmlns:cc="http://creativecommons.org/ns#"
   xmlns:rdf="http://www.w3.org/1999/02/22-rdf-syntax-ns#"
   xmlns:svg="http://www.w3.org/2000/svg"
   xmlns="http://www.w3.org/2000/svg"
   xmlns:sodipodi="http://sodipodi.sourceforge.net/DTD/sodipodi-0.dtd"
   xmlns:inkscape="http://www.inkscape.org/namespaces/inkscape"
   width="8cm"
   height="8cm"
   viewBox="0 0 80.000001 80"
   version="1.1"
   id="svg8"
   inkscape:version="0.92.4 (5da689c313, 2019-01-14)"
   sodipodi:docname="logo_quadratisch.svg">
  <defs
     id="defs2">
    <symbol
       id="inkstitch_ignore_layer">
      <title
         id="title9694">Ignore entire layer when generating stitch plan</title>
      <path
         id="inkstitch_path25368-7"
         d="M 9.2465269,-4.9265995e-6 C 9.246525,5.1067241 5.1067028,9.2465451 -2.615882e-5,9.2465451 -5.1067554,9.2465451 -9.2465782,5.1067241 -9.2465801,-4.9265995e-6 -9.24658,-2.4523429 -8.2723922,-4.8042399 -6.538327,-6.5383059 c 1.7340653,-1.734065 4.0859624,-2.708252 6.53830084118,-2.708252 5.10673015882,0 9.24655285882,4.139823 9.24655305882,9.2465529734005 0,0 0,0 0,0"
         style="opacity:1;vector-effect:none;fill:#fafafa;fill-opacity:1;fill-rule:evenodd;stroke:#ff0000;stroke-width:1.06501234;stroke-linecap:round;stroke-linejoin:miter;stroke-miterlimit:4;stroke-dasharray:3.19503705, 3.19503705;stroke-dashoffset:0;stroke-opacity:1"
         inkscape:connector-curvature="0" />
      <path
         id="use5800"
         d="M 4,4.452769 1.46667,1.286102 H -5.5 l 2.53333,3.166667 z"
         style="color:#000000;fill:#d5d5d5;fill-opacity:1;fill-rule:evenodd;stroke:#5a5a5a;stroke-width:0.63330007;stroke-linecap:square;stroke-linejoin:round;stroke-miterlimit:0;stroke-opacity:1"
         inkscape:connector-curvature="0"
         sodipodi:nodetypes="ccccc" />
      <path
         id="use5864"
         d="M 4,2.552769 1.46667,-0.613898 H -5.5 l 2.53333,3.166667 z"
         style="color:#000000;opacity:0.5;fill:#d5d5d5;fill-opacity:1;fill-rule:evenodd;stroke:#858585;stroke-width:0.63339424;stroke-linecap:square;stroke-linejoin:round;stroke-miterlimit:0;stroke-opacity:1"
         inkscape:connector-curvature="0"
         sodipodi:nodetypes="ccccc" />
      <g
         id="g5771">
        <path
           id="path8011"
           d="m -1.0666699,-5.0472339 h 4.4333333 l 0.6333333,0.6333333 V 0.01943274 L 3.3666634,0.65276607 H -1.0666699 L -1.7000032,0.01943274 V -4.4139006 Z"
           style="fill:#aa0000;fill-rule:evenodd;stroke:#aa0000;stroke-width:1px"
           inkscape:connector-curvature="0"
           sodipodi:nodetypes="ccccccccc" />
        <path
           style="fill:none;stroke:#ffffff;stroke-width:1.70000005"
           d="m -0.43333658,-3.8755672 c 0,0 3.16666668,3.16666661 3.16666668,3.16666661"
           id="path8023"
           inkscape:connector-curvature="0" />
        <path
           style="fill:none;stroke:#ffffff;stroke-width:1.79999995;stroke-linejoin:round"
           d="m 2.7333301,-3.8755672 c 0,0 -3.16666668,3.16666661 -3.16666668,3.16666661"
           id="path8025"
           inkscape:connector-curvature="0" />
      </g>
    </symbol>
  </defs>
  <sodipodi:namedview
     id="base"
     pagecolor="#ffffff"
     bordercolor="#666666"
     borderopacity="1.0"
     inkscape:pageopacity="0.0"
     inkscape:pageshadow="2"
     inkscape:zoom="1.4142137"
     inkscape:cx="-5.0759301"
     inkscape:cy="215.93114"
     inkscape:document-units="mm"
     inkscape:current-layer="layer2"
     showgrid="false"
     inkscape:snap-bbox="true"
     inkscape:bbox-paths="true"
     inkscape:bbox-nodes="true"
     inkscape:snap-bbox-edge-midpoints="true"
     inkscape:snap-bbox-midpoints="true"
     inkscape:object-paths="true"
     inkscape:snap-intersection-paths="true"
     inkscape:snap-smooth-nodes="true"
     inkscape:snap-midpoints="true"
     inkscape:window-width="1920"
     inkscape:window-height="1141"
     inkscape:window-x="1920"
     inkscape:window-y="0"
     inkscape:window-maximized="1"
     inkscape:snap-object-midpoints="true"
     inkscape:snap-center="true"
     inkscape:snap-text-baseline="true"
     inkscape:snap-global="true"
     fit-margin-top="0"
     fit-margin-left="0"
     fit-margin-right="0"
     fit-margin-bottom="0"
     units="cm" />
  <metadata
     id="metadata5">
    <rdf:RDF>
      <cc:Work
         rdf:about="">
        <dc:format>image/svg+xml</dc:format>
        <dc:type
           rdf:resource="http://purl.org/dc/dcmitype/StillImage" />
        <dc:title />
      </cc:Work>
    </rdf:RDF>
  </metadata>
  <g
     inkscape:label="Orig"
     inkscape:groupmode="layer"
     id="layer1"
     transform="translate(560.27466,198.00928)"
     style="display:none">
    <rect
       style="opacity:1;fill:none;fill-opacity:1;stroke:none;stroke-width:1.34281981;stroke-miterlimit:4;stroke-dasharray:none;stroke-opacity:1"
       id="rect823"
       width="80"
       height="80.02668"
       x="-560.27466"
       y="-198.03595" />
    <path
       style="opacity:0.97600002;fill:#ff6906;fill-opacity:1;fill-rule:evenodd;stroke:#000000;stroke-width:0.70579082;stroke-linecap:square;stroke-linejoin:miter;stroke-miterlimit:100;stroke-dasharray:none;stroke-opacity:1;paint-order:normal"
       d="m -483.39517,-168.95544 v 0 l -36.87948,10.9714 v 0 l -36.87948,-10.9714 v 0 z"
       id="rect8417-7"
       inkscape:connector-curvature="0"
       sodipodi:nodetypes="ccccccc"
       inkscape:export-xdpi="29.916189"
       inkscape:export-ydpi="29.916189" />
    <path
       style="opacity:0.97600002;fill:#ff6906;fill-opacity:1;fill-rule:evenodd;stroke:#000000;stroke-width:0.70579082;stroke-linecap:square;stroke-linejoin:miter;stroke-miterlimit:100;stroke-dasharray:none;stroke-opacity:1;paint-order:normal"
       d="m -557.15413,-147.01265 v 0 l 36.87948,-10.97139 v 0 l 36.87948,10.97139 v 0 z"
       id="rect8417-3-0"
       inkscape:connector-curvature="0"
       sodipodi:nodetypes="ccccccc"
       inkscape:export-xdpi="29.916189"
       inkscape:export-ydpi="29.916189" />
    <text
       xml:space="preserve"
       style="font-style:normal;font-weight:normal;font-size:10.80441475px;line-height:6.75275898px;font-family:sans-serif;letter-spacing:0px;word-spacing:0px;fill:#000000;fill-opacity:1;stroke:none;stroke-width:0.27011037px;stroke-linecap:butt;stroke-linejoin:miter;stroke-opacity:1"
       x="-559.47711"
       y="-170.76607"
       id="text8437-0-6"
       inkscape:export-xdpi="29.916189"
       inkscape:export-ydpi="29.916189"><tspan
         sodipodi:role="line"
         id="tspan8435-3-9"
         x="-559.47711"
         y="-170.76607"
         style="font-style:normal;font-variant:normal;font-weight:normal;font-stretch:normal;font-family:GonzalesSans;-inkscape-font-specification:GonzalesSans;stroke-width:0.27011037px">Snake</tspan></text>
    <text
       xml:space="preserve"
       style="font-style:normal;font-weight:normal;font-size:10.80441475px;line-height:6.75275898px;font-family:sans-serif;letter-spacing:0px;word-spacing:0px;fill:#000000;fill-opacity:1;stroke:none;stroke-width:0.27011037px;stroke-linecap:butt;stroke-linejoin:miter;stroke-opacity:1"
       x="-559.578"
       y="-136.60463"
       id="text8437-2"
       inkscape:export-xdpi="29.916189"
       inkscape:export-ydpi="29.916189"><tspan
         sodipodi:role="line"
         id="tspan8435-1"
         x="-559.578"
         y="-136.60463"
         style="font-style:normal;font-variant:normal;font-weight:normal;font-stretch:normal;font-family:GonzalesSans;-inkscape-font-specification:GonzalesSans;letter-spacing:5.41623878px;stroke-width:0.27011037px">Soft</tspan></text>
  </g>
  <g
     style="display:none"
     transform="translate(560.27466,198.00928)"
     id="g881"
     inkscape:groupmode="layer"
     inkscape:label="Orig_Pfade">
    <rect
       y="-198.03595"
       x="-560.27466"
       height="80.02668"
       width="80"
       id="rect867"
       style="opacity:1;fill:none;fill-opacity:1;stroke:none;stroke-width:1.34281981;stroke-miterlimit:4;stroke-dasharray:none;stroke-opacity:1" />
    <path
       inkscape:export-ydpi="29.916189"
       inkscape:export-xdpi="29.916189"
       sodipodi:nodetypes="ccccccc"
       inkscape:connector-curvature="0"
       id="path869"
       d="m -483.39517,-168.95544 v 0 l -36.87948,10.9714 v 0 l -36.87948,-10.9714 v 0 z"
       style="opacity:0.97600002;fill:#ff6906;fill-opacity:1;fill-rule:evenodd;stroke:#000000;stroke-width:0.70579082;stroke-linecap:square;stroke-linejoin:miter;stroke-miterlimit:100;stroke-dasharray:none;stroke-opacity:1;paint-order:normal" />
    <path
       inkscape:export-ydpi="29.916189"
       inkscape:export-xdpi="29.916189"
       sodipodi:nodetypes="ccccccc"
       inkscape:connector-curvature="0"
       id="path871"
       d="m -557.15413,-147.01265 v 0 l 36.87948,-10.97139 v 0 l 36.87948,10.97139 v 0 z"
       style="opacity:0.97600002;fill:#ff6906;fill-opacity:1;fill-rule:evenodd;stroke:#000000;stroke-width:0.70579082;stroke-linecap:square;stroke-linejoin:miter;stroke-miterlimit:100;stroke-dasharray:none;stroke-opacity:1;paint-order:normal" />
    <g
       aria-label="Snake"
       style="font-style:normal;font-weight:normal;font-size:10.80441475px;line-height:6.75275898px;font-family:sans-serif;letter-spacing:0px;word-spacing:0px;fill:#000000;fill-opacity:1;stroke:none;stroke-width:0.27011037px;stroke-linecap:butt;stroke-linejoin:miter;stroke-opacity:1"
       id="text875">
      <path
         d="m -544.10243,-172.05179 v -2.85237 q 0,-0.2593 -0.10804,-0.497 -0.0972,-0.2377 -0.27011,-0.41057 -0.17287,-0.17287 -0.41057,-0.27011 -0.22689,-0.10804 -0.4862,-0.10804 l -12.17658,0.0108 v -1.30733 h 13.4407 l 0.0108,-1.92319 h -14.08896 q -0.27011,0 -0.5078,0.10804 -0.2269,0.0972 -0.39977,0.27012 -0.17287,0.17287 -0.28091,0.41056 -0.0972,0.2269 -0.0972,0.49701 v 2.58225 q 0,0.27011 0.0972,0.50781 0.10804,0.22689 0.28091,0.39976 0.17287,0.17287 0.39977,0.28092 0.23769,0.0972 0.5078,0.0972 l 12.16577,-0.0108 v 1.57745 h -13.44069 v 1.92318 h 14.08896 q 0.25931,0 0.4862,-0.0972 0.2377,-0.10804 0.41057,-0.28091 0.17287,-0.17287 0.27011,-0.39977 0.10804,-0.23769 0.10804,-0.5078 z"
         style="font-style:normal;font-variant:normal;font-weight:normal;font-stretch:normal;font-family:GonzalesSans;-inkscape-font-specification:GonzalesSans;stroke-width:0.27011037px"
         id="path883"
         inkscape:connector-curvature="0" />
      <path
         d="m -528.29777,-171.91134 v -7.49826 h -1.92318 v 6.27737 l -10.43707,-6.00726 q -0.33493,-0.19448 -0.68067,-0.2485 -0.34575,-0.0648 -0.62666,0.0324 -0.27011,0.0972 -0.44298,0.37816 -0.17287,0.27011 -0.17287,0.7455 v 7.46585 h 1.92318 v -6.26656 l 10.43707,6.06128 q 0.33494,0.19448 0.66987,0.2377 0.34574,0.054 0.61585,-0.0432 0.28092,-0.10805 0.45379,-0.37816 0.18367,-0.28091 0.18367,-0.75631 z"
         style="font-style:normal;font-variant:normal;font-weight:normal;font-stretch:normal;font-family:GonzalesSans;-inkscape-font-specification:GonzalesSans;stroke-width:0.27011037px"
         id="path885"
         inkscape:connector-curvature="0" />
      <path
         d="m -512.12356,-170.76607 -5.6399,-8.64353 h -2.9388 l -6.72035,8.64353 h 2.431 l 5.75875,-7.41183 2.53904,4.07327 h -5.26175 l 1.60985,1.58825 h 4.49464 l 1.29653,1.75031 z"
         style="font-style:normal;font-variant:normal;font-weight:normal;font-stretch:normal;font-family:GonzalesSans;-inkscape-font-specification:GonzalesSans;stroke-width:0.27011037px"
         id="path887"
         inkscape:connector-curvature="0" />
      <path
         d="m -496.54207,-170.76607 -0.0216,-1.27492 -10.00488,-3.06845 10.00488,-3.02524 0.0216,-1.27492 h -1.93399 l -10.00489,3.33856 h -0.36735 v -3.33856 h -1.91238 v 8.64353 h 1.91238 v -3.39258 h 0.36735 l 10.00489,3.39258 z"
         style="font-style:normal;font-variant:normal;font-weight:normal;font-stretch:normal;font-family:GonzalesSans;-inkscape-font-specification:GonzalesSans;stroke-width:0.27011037px"
         id="path889"
         inkscape:connector-curvature="0" />
      <path
         d="m -481.07218,-170.76607 v -1.92318 h -12.36025 v -2.98202 l 2.39858,1.43699 8.03849,0.0216 v -1.83675 h -10.43707 v -1.43698 h 12.36025 v -1.92319 l -12.99771,0.054 q -0.27011,0 -0.50781,0.10805 -0.22689,0.0972 -0.39976,0.27011 -0.17287,0.17287 -0.28091,0.41057 -0.0972,0.22689 -0.0972,0.48619 v 6.02887 q 0,0.27011 0.0972,0.5078 0.10804,0.2269 0.28091,0.39977 0.17287,0.17287 0.39976,0.28091 0.2377,0.0972 0.50781,0.0972 z"
         style="font-style:normal;font-variant:normal;font-weight:normal;font-stretch:normal;font-family:GonzalesSans;-inkscape-font-specification:GonzalesSans;stroke-width:0.27011037px"
         id="path891"
         inkscape:connector-curvature="0" />
    </g>
    <g
       aria-label="Soft"
       style="font-style:normal;font-weight:normal;font-size:10.80441475px;line-height:6.75275898px;font-family:sans-serif;letter-spacing:0px;word-spacing:0px;fill:#000000;fill-opacity:1;stroke:none;stroke-width:0.27011037px;stroke-linecap:butt;stroke-linejoin:miter;stroke-opacity:1"
       id="text879">
      <path
         d="m -544.20332,-137.89035 v -2.85237 q 0,-0.25931 -0.10804,-0.497 -0.0972,-0.2377 -0.27012,-0.41057 -0.17287,-0.17287 -0.41056,-0.27011 -0.2269,-0.10805 -0.4862,-0.10805 l -12.17658,0.0108 v -1.30734 h 13.44069 l 0.0108,-1.92318 h -14.08896 q -0.27011,0 -0.50781,0.10804 -0.22689,0.0972 -0.39976,0.27011 -0.17287,0.17287 -0.28091,0.41057 -0.0972,0.22689 -0.0972,0.497 v 2.58226 q 0,0.27011 0.0972,0.50781 0.10804,0.22689 0.28091,0.39976 0.17287,0.17287 0.39976,0.28091 0.2377,0.0972 0.50781,0.0972 l 12.16577,-0.0108 v 1.57744 h -13.44069 v 1.92319 h 14.08896 q 0.2593,0 0.4862,-0.0972 0.23769,-0.10804 0.41056,-0.28091 0.17288,-0.17287 0.27012,-0.39977 0.10804,-0.23769 0.10804,-0.5078 z"
         style="font-style:normal;font-variant:normal;font-weight:normal;font-stretch:normal;font-family:GonzalesSans;-inkscape-font-specification:GonzalesSans;letter-spacing:5.41623878px;stroke-width:0.27011037px"
         id="path894"
         inkscape:connector-curvature="0" />
      <path
         d="m -522.9662,-137.89035 v -6.07209 q 0,-0.27011 -0.10804,-0.497 -0.0972,-0.2377 -0.27011,-0.41057 -0.17287,-0.17287 -0.41057,-0.27011 -0.22689,-0.10804 -0.497,-0.10804 h -11.71199 q -0.27011,0 -0.50781,0.10804 -0.22689,0.0972 -0.39976,0.27011 -0.17287,0.17287 -0.28092,0.41057 -0.0972,0.22689 -0.0972,0.497 v 6.07209 q 0,0.27011 0.0972,0.5078 0.10805,0.2269 0.28092,0.39977 0.17287,0.17287 0.39976,0.28091 0.2377,0.0972 0.50781,0.0972 h 11.71199 q 0.27011,0 0.497,-0.0972 0.2377,-0.10804 0.41057,-0.28091 0.17287,-0.17287 0.27011,-0.39977 0.10804,-0.23769 0.10804,-0.5078 z m -1.92319,-0.63747 h -10.43706 v -4.79716 h 10.43706 z"
         style="font-style:normal;font-variant:normal;font-weight:normal;font-stretch:normal;font-family:GonzalesSans;-inkscape-font-specification:GonzalesSans;letter-spacing:5.41623878px;stroke-width:0.27011037px"
         id="path896"
         inkscape:connector-curvature="0" />
      <path
         d="m -501.52449,-143.28176 v -1.93399 l -12.92208,0.0216 q -0.2593,0 -0.497,0.10804 -0.22689,0.0972 -0.39976,0.27012 -0.17288,0.17287 -0.28092,0.41056 -0.0972,0.2269 -0.0972,0.4862 v 7.31459 h 1.91238 v -4.23533 l 2.38778,1.43699 7.98446,0.0108 v -1.81514 h -10.37224 v -2.07445 z"
         style="font-style:normal;font-variant:normal;font-weight:normal;font-stretch:normal;font-family:GonzalesSans;-inkscape-font-specification:GonzalesSans;letter-spacing:5.41623878px;stroke-width:0.27011037px"
         id="path898"
         inkscape:connector-curvature="0" />
      <path
         d="m -481.21605,-143.36819 v -1.87997 h -14.33746 v 1.90158 h 6.18012 v 6.74195 h 1.92319 v -6.74195 z"
         style="font-style:normal;font-variant:normal;font-weight:normal;font-stretch:normal;font-family:GonzalesSans;-inkscape-font-specification:GonzalesSans;letter-spacing:5.41623878px;stroke-width:0.27011037px"
         id="path900"
         inkscape:connector-curvature="0" />
    </g>
  </g>
  <g
     inkscape:groupmode="layer"
     id="layer2"
     inkscape:label="schrift"
     style="display:inline">
    <g
       transform="translate(560.27466,198.00928)"
       id="g853"
       style="font-style:normal;font-weight:normal;font-size:10.80441475px;line-height:6.75275898px;font-family:sans-serif;letter-spacing:0px;word-spacing:0px;display:inline;fill:#000000;fill-opacity:1;stroke:none;stroke-width:0.27011037px;stroke-linecap:butt;stroke-linejoin:miter;stroke-opacity:1"
       aria-label="Snake">
      <path
         inkscape:connector-curvature="0"
         id="path843"
         style="font-style:normal;font-variant:normal;font-weight:normal;font-stretch:normal;font-family:GonzalesSans;-inkscape-font-specification:GonzalesSans;stroke-width:0.27011037px"
         d="m -544.10243,-172.05179 v -2.85237 q 0,-0.2593 -0.10804,-0.497 -0.0972,-0.2377 -0.27011,-0.41057 -0.17287,-0.17287 -0.41057,-0.27011 -0.22689,-0.10804 -0.4862,-0.10804 l -12.17658,0.0108 v -1.30733 h 13.4407 l 0.0108,-1.92319 h -14.08896 q -0.27011,0 -0.5078,0.10804 -0.2269,0.0972 -0.39977,0.27012 -0.17287,0.17287 -0.28091,0.41056 -0.0972,0.2269 -0.0972,0.49701 v 2.58225 q 0,0.27011 0.0972,0.50781 0.10804,0.22689 0.28091,0.39976 0.17287,0.17287 0.39977,0.28092 0.23769,0.0972 0.5078,0.0972 l 12.16577,-0.0108 v 1.57745 h -13.44069 v 1.92318 h 14.08896 q 0.25931,0 0.4862,-0.0972 0.2377,-0.10804 0.41057,-0.28091 0.17287,-0.17287 0.27011,-0.39977 0.10804,-0.23769 0.10804,-0.5078 z" />
      <path
         inkscape:connector-curvature="0"
         id="path845"
         style="font-style:normal;font-variant:normal;font-weight:normal;font-stretch:normal;font-family:GonzalesSans;-inkscape-font-specification:GonzalesSans;stroke-width:0.27011037px"
         d="m -528.29777,-171.91134 v -7.49826 h -1.92318 v 6.27737 l -10.43707,-6.00726 q -0.33493,-0.19448 -0.68067,-0.2485 -0.34575,-0.0648 -0.62666,0.0324 -0.27011,0.0972 -0.44298,0.37816 -0.17287,0.27011 -0.17287,0.7455 v 7.46585 h 1.92318 v -6.26656 l 10.43707,6.06128 q 0.33494,0.19448 0.66987,0.2377 0.34574,0.054 0.61585,-0.0432 0.28092,-0.10805 0.45379,-0.37816 0.18367,-0.28091 0.18367,-0.75631 z" />
      <path
         inkscape:connector-curvature="0"
         id="path847"
         style="font-style:normal;font-variant:normal;font-weight:normal;font-stretch:normal;font-family:GonzalesSans;-inkscape-font-specification:GonzalesSans;stroke-width:0.27011037px"
         d="m -512.12356,-170.76607 -5.6399,-8.64353 h -2.9388 l -6.72035,8.64353 h 2.431 l 5.75875,-7.41183 2.53904,4.07327 h -5.26175 l 1.60985,1.58825 h 4.49464 l 1.29653,1.75031 z" />
      <path
         inkscape:connector-curvature="0"
         id="path849"
         style="font-style:normal;font-variant:normal;font-weight:normal;font-stretch:normal;font-family:GonzalesSans;-inkscape-font-specification:GonzalesSans;stroke-width:0.27011037px"
         d="m -496.54207,-170.76607 -0.0216,-1.27492 -10.00488,-3.06845 10.00488,-3.02524 0.0216,-1.27492 h -1.93399 l -10.00489,3.33856 h -0.36735 v -3.33856 h -1.91238 v 8.64353 h 1.91238 v -3.39258 h 0.36735 l 10.00489,3.39258 z" />
      <path
         inkscape:connector-curvature="0"
         id="path851"
         style="font-style:normal;font-variant:normal;font-weight:normal;font-stretch:normal;font-family:GonzalesSans;-inkscape-font-specification:GonzalesSans;stroke-width:0.27011037px"
         d="m -481.07218,-170.76607 v -1.92318 h -12.36025 v -2.98202 l 2.39858,1.43699 8.03849,0.0216 v -1.83675 h -10.43707 v -1.43698 h 12.36025 v -1.92319 l -12.99771,0.054 q -0.27011,0 -0.50781,0.10805 -0.22689,0.0972 -0.39976,0.27011 -0.17287,0.17287 -0.28091,0.41057 -0.0972,0.22689 -0.0972,0.48619 v 6.02887 q 0,0.27011 0.0972,0.5078 0.10804,0.2269 0.28091,0.39977 0.17287,0.17287 0.39976,0.28091 0.2377,0.0972 0.50781,0.0972 z" />
    </g>
    <g
       transform="translate(560.27466,198.00928)"
       id="g863"
       style="font-style:normal;font-weight:normal;font-size:10.80441475px;line-height:6.75275898px;font-family:sans-serif;letter-spacing:0px;word-spacing:0px;display:inline;fill:#000000;fill-opacity:1;stroke:none;stroke-width:0.27011037px;stroke-linecap:butt;stroke-linejoin:miter;stroke-opacity:1"
       aria-label="Soft">
      <path
         inkscape:connector-curvature="0"
         id="path855"
         style="font-style:normal;font-variant:normal;font-weight:normal;font-stretch:normal;font-family:GonzalesSans;-inkscape-font-specification:GonzalesSans;letter-spacing:5.41623878px;stroke-width:0.27011037px"
         d="m -544.20332,-137.89035 v -2.85237 q 0,-0.25931 -0.10804,-0.497 -0.0972,-0.2377 -0.27012,-0.41057 -0.17287,-0.17287 -0.41056,-0.27011 -0.2269,-0.10805 -0.4862,-0.10805 l -12.17658,0.0108 v -1.30734 h 13.44069 l 0.0108,-1.92318 h -14.08896 q -0.27011,0 -0.50781,0.10804 -0.22689,0.0972 -0.39976,0.27011 -0.17287,0.17287 -0.28091,0.41057 -0.0972,0.22689 -0.0972,0.497 v 2.58226 q 0,0.27011 0.0972,0.50781 0.10804,0.22689 0.28091,0.39976 0.17287,0.17287 0.39976,0.28091 0.2377,0.0972 0.50781,0.0972 l 12.16577,-0.0108 v 1.57744 h -13.44069 v 1.92319 h 14.08896 q 0.2593,0 0.4862,-0.0972 0.23769,-0.10804 0.41056,-0.28091 0.17288,-0.17287 0.27012,-0.39977 0.10804,-0.23769 0.10804,-0.5078 z" />
      <path
         inkscape:connector-curvature="0"
         id="path857"
         style="font-style:normal;font-variant:normal;font-weight:normal;font-stretch:normal;font-family:GonzalesSans;-inkscape-font-specification:GonzalesSans;letter-spacing:5.41623878px;stroke-width:0.27011037px"
         d="m -522.9662,-137.89035 v -6.07209 q 0,-0.27011 -0.10804,-0.497 -0.0972,-0.2377 -0.27011,-0.41057 -0.17287,-0.17287 -0.41057,-0.27011 -0.22689,-0.10804 -0.497,-0.10804 h -11.71199 q -0.27011,0 -0.50781,0.10804 -0.22689,0.0972 -0.39976,0.27011 -0.17287,0.17287 -0.28092,0.41057 -0.0972,0.22689 -0.0972,0.497 v 6.07209 q 0,0.27011 0.0972,0.5078 0.10805,0.2269 0.28092,0.39977 0.17287,0.17287 0.39976,0.28091 0.2377,0.0972 0.50781,0.0972 h 11.71199 q 0.27011,0 0.497,-0.0972 0.2377,-0.10804 0.41057,-0.28091 0.17287,-0.17287 0.27011,-0.39977 0.10804,-0.23769 0.10804,-0.5078 z m -1.92319,-0.63747 h -10.43706 v -4.79716 h 10.43706 z" />
      <path
         inkscape:connector-curvature="0"
         id="path859"
         style="font-style:normal;font-variant:normal;font-weight:normal;font-stretch:normal;font-family:GonzalesSans;-inkscape-font-specification:GonzalesSans;letter-spacing:5.41623878px;stroke-width:0.27011037px"
         d="m -501.52449,-143.28176 v -1.93399 l -12.92208,0.0216 q -0.2593,0 -0.497,0.10804 -0.22689,0.0972 -0.39976,0.27012 -0.17288,0.17287 -0.28092,0.41056 -0.0972,0.2269 -0.0972,0.4862 v 7.31459 h 1.91238 v -4.23533 l 2.38778,1.43699 7.98446,0.0108 v -1.81514 h -10.37224 v -2.07445 z" />
      <path
         inkscape:connector-curvature="0"
         id="path861"
         style="font-style:normal;font-variant:normal;font-weight:normal;font-stretch:normal;font-family:GonzalesSans;-inkscape-font-specification:GonzalesSans;letter-spacing:5.41623878px;stroke-width:0.27011037px"
         d="m -481.21605,-143.36819 v -1.87997 h -14.33746 v 1.90158 h 6.18012 v 6.74195 h 1.92319 v -6.74195 z" />
    </g>
  </g>
  <g
     inkscape:groupmode="layer"
     id="layer4"
     inkscape:label="orange"
     style="display:inline">
    <path
       transform="translate(560.27466,198.00928)"
       inkscape:export-ydpi="29.916189"
       inkscape:export-xdpi="29.916189"
       sodipodi:nodetypes="ccccccc"
       inkscape:connector-curvature="0"
       id="path881"
       d="m -483.39517,-168.95544 v 0 l -36.87948,10.9714 v 0 l -36.87948,-10.9714 v 0 z"
       style="display:inline;opacity:0.97600002;fill:#ff6906;fill-opacity:1;fill-rule:evenodd;stroke:none;stroke-width:0.70579082;stroke-linecap:square;stroke-linejoin:miter;stroke-miterlimit:100;stroke-dasharray:none;stroke-opacity:1;paint-order:normal" />
    <path
       transform="translate(560.27466,198.00928)"
       inkscape:export-ydpi="29.916189"
       inkscape:export-xdpi="29.916189"
       sodipodi:nodetypes="ccccccc"
       inkscape:connector-curvature="0"
       id="path884"
       d="m -557.15413,-147.01265 v 0 l 36.87948,-10.97139 v 0 l 36.87948,10.97139 v 0 z"
       style="display:inline;opacity:0.97600002;fill:#ff6906;fill-opacity:1;fill-rule:evenodd;stroke:none;stroke-width:0.70579082;stroke-linecap:square;stroke-linejoin:miter;stroke-miterlimit:100;stroke-dasharray:none;stroke-opacity:1;paint-order:normal" />
  </g>
  <g
     inkscape:groupmode="layer"
     id="layer3"
     inkscape:label="kontur"
     style="display:inline">
    <path
       style="color:#000000;font-style:normal;font-variant:normal;font-weight:normal;font-stretch:normal;font-size:medium;line-height:normal;font-family:sans-serif;font-variant-ligatures:normal;font-variant-position:normal;font-variant-caps:normal;font-variant-numeric:normal;font-variant-alternates:normal;font-feature-settings:normal;text-indent:0;text-align:start;text-decoration:none;text-decoration-line:none;text-decoration-style:solid;text-decoration-color:#000000;letter-spacing:normal;word-spacing:normal;text-transform:none;writing-mode:lr-tb;direction:ltr;text-orientation:mixed;dominant-baseline:auto;baseline-shift:baseline;text-anchor:start;white-space:normal;shape-padding:0;clip-rule:nonzero;display:inline;overflow:visible;visibility:visible;opacity:0.97600002;isolation:auto;mix-blend-mode:normal;color-interpolation:sRGB;color-interpolation-filters:linearRGB;solid-color:#000000;solid-opacity:1;vector-effect:none;fill:#000000;fill-opacity:1;fill-rule:evenodd;stroke:none;stroke-width:0.70579082;stroke-linecap:square;stroke-linejoin:miter;stroke-miterlimit:100;stroke-dasharray:none;stroke-dashoffset:0;stroke-opacity:1;paint-order:normal;color-rendering:auto;image-rendering:auto;shape-rendering:auto;text-rendering:auto;enable-background:accumulate"
       d="M 0.69654,28.70069 38.76099,40.0249 0.69654,51.34912 h 2.42382 76.1836 L 41.23755,40.0249 79.30396,28.70069 h -2.42383 z m 4.84374,0.70507 H 74.46021 L 39.99927,39.65772 Z m 34.45899,10.98829 34.45508,10.25 H 5.54614 Z"
       id="path841"
       inkscape:connector-curvature="0" />
  </g>
  <g
     inkscape:label="Stich-Plan"
     inkscape:groupmode="layer"
     id="__inkstitch_stitch_plan__"
     style="display:none">
    <g
       inkscape:label="color block 1"
       id="__color_block_0__">
      <path
         id="path912"
         transform="scale(0.264583)"
         style="fill:none;stroke:#000000;stroke-width:0.40000001"
         embroider_manual_stitch="true"
         d="m 10.283075,82.204724 1.539787,0.321846 1.539786,0.321847 -1.539786,-0.321847 -1.539787,-0.321846 3.079573,0.643693 -2.67253,2.672529 -2.6725293,-4.562293 1.5655316,-5.020827 3.7795277,-3.779528 2.672529,2.67253 2.67253,-2.67253 2.67253,2.67253 2.672529,-2.67253 2.67253,2.67253 2.672529,-2.67253 2.67253,2.67253 2.672529,-2.67253 2.67253,2.67253 2.67253,-2.67253 2.672529,2.67253 2.67253,-2.67253 2.672529,2.67253 2.67253,-2.67253 2.672529,2.67253 4.008795,-4.008794 3.66082,0.04411 H 53.858268 42.519685 31.181102 19.84252 8.503937 5.6609135 l -1.2867121,0.94488 H 11.338583 22.677165 34.015748 45.354331 56.692913 61.1149 l -0.0053,0.944882 H 59.527559 48.188976 36.850394 25.511811 14.173228 3.6753271 L 3.2525278,73.700787 H 5.6692913 17.007874 28.346457 39.685039 51.023622 61.104287 l -0.0053,0.944882 H 53.858268 42.519685 31.181102 19.84252 8.503937 3.0624746 l -0.047961,0.944882 h 8.3240694 11.338582 11.338583 11.338583 11.338582 4.400762 l -0.0053,0.944882 H 59.527559 48.188976 36.850394 25.511811 14.173228 3.0145137 v 0.944882 H 5.6692913 17.007874 28.346457 39.685039 51.023622 61.083063 l -5.667659,0.08645 H 49.746113 44.076822 38.40753 32.738239 27.068948 21.399656 15.730365 10.690118 L 10.283075,78.4252 H 8.503937 3.0145137 v 0.944882 h 7.2685613 v 0.944882 H 3.0145137 l 1.9755512,4.850991 0.3549942,0.354994 2.6725296,-2.672529 4.0087943,4.008794 1.336265,1.336265 2.672529,-2.67253 2.67253,2.67253 2.67253,-2.67253 2.672529,2.67253 2.67253,-2.67253 2.672529,2.67253 2.67253,-2.67253 2.672529,2.67253 2.67253,-2.67253 2.67253,2.67253 2.672529,-2.67253 2.67253,2.67253 2.672529,-2.67253 2.67253,2.67253 2.672529,-2.67253 2.67253,4.562293 v 5.669292 l -1.794798,4.925856 -0.877732,0.87773 -2.672529,-2.672523 -2.67253,2.672523 -2.672529,-2.672523 -2.67253,2.672523 -2.672529,-2.672523 -2.67253,2.672523 -2.67253,-2.672523 -2.672529,2.672523 -2.67253,-2.672523 -2.672529,2.672523 -2.67253,-2.672523 -2.672529,2.672523 -2.67253,-2.672523 -2.67253,2.672523 -2.672529,-2.672523 -2.67253,2.672523 -2.6725293,-2.672523 -4.0087943,4.008793 -0.9536129,-0.84515 h 8.2834015 11.338582 11.338583 11.338583 11.338582 2.385779 l 0.974756,-0.94488 H 53.858268 42.519685 31.181102 19.84252 8.503937 3.0551815 v -0.94488 h 2.6141098 11.3385827 11.338583 11.338582 11.338583 9.620057 l 0.33964,-0.944879 H 59.527559 48.188976 36.850394 25.511811 14.173228 3.0551815 V 98.26772 h 8.2834015 11.338582 11.338583 11.338583 11.338582 4.413925 l 0.01656,-0.944882 H 53.858268 42.519685 31.181102 19.84252 8.503937 3.0551815 V 96.377953 H 5.6692913 17.007874 28.346457 39.685039 51.023622 61.123396 v -0.944882 h -1.595837 -5.672913 v -0.944882 h 2.838267 4.430483 v -0.944882 h -7.265128 l -0.0036,-0.944882 h 7.26875 v -0.944882 h -1.595837 -5.672913 v -0.944882 h 2.838267 4.430483 V 89.76378 H 53.85829 l -4.460766,-2.950864 -1.29197,-1.29197 -2.672529,2.67253 -2.67253,-2.67253 -2.672529,2.67253 -2.67253,-2.67253 -2.67253,2.67253 -2.672529,-2.67253 -2.67253,2.67253 -2.672529,-2.67253 -4.008795,4.008794 -0.568343,0.23404 H 19.84252 8.503937 7.7371477 L 5.004587,88.818898 H 5.6692913 17.007874 28.346457 39.685039 51.023622 61.123396 V 87.874016 H 59.527559 48.188976 36.850394 25.511811 14.173228 4.0457288 L 3.4358612,86.929134 H 11.338583 22.677165 34.015748 45.354331 56.692913 61.08113 L 60.893792,85.984252 H 53.858268 42.519685 31.181102 19.84252 8.503937 3.1291446 L 3.0258491,85.03937 h 2.6434422 11.3385827 11.338583 11.338582 11.338583 9.477179 l -0.6452,-0.944882 H 48.188976 36.850394 25.511811 14.173228 3.0145137 v -0.944882 h 8.3240693 11.338582 11.338583 11.338583 11.338582 1.972454 l -5.570148,-0.679726 -5.669289,0.005 -5.669289,0.005 -5.669289,0.005 -5.669289,0.005 -5.669289,0.005 -5.669289,0.005 -5.669289,0.005 -3.127121,-1.245236 H 5.6692913 3.0145137 v 0.944881 h 5.4894233 1.779138 -1.779138 1.779138 -1.779138 1.779138 56.589852 l 1.306421,2.293509 1.306421,2.293508 -1.306421,-2.293508 -1.306421,-2.293509 2.612842,4.587017 v 5.669292 l 1.357121,5.107153 3.29875,4.302903 -6.110144,0.17615 h -1.158569 v -0.94488 h 7.268713 v -0.94488 h -0.440853 -6.82786 v -0.944881 h 3.993215 3.275498 v -0.944881 h -6.110144 -1.158569 v -0.944882 h 7.268713 v -0.944882 h -0.440853 -6.82786 v -0.944882 h 3.993215 3.275498 V 94.48799 h -6.110144 -1.158569 v -0.944882 h 7.268713 v -0.944882 h -0.440853 -6.82786 v -0.944882 h 3.993215 3.275498 V 90.708661 H 68.031496 66.872927 V 89.76378 h 7.268713 v -0.944882 h -0.440853 -6.82786 v -0.944882 h 3.993215 3.275498 V 86.929134 H 68.031496 66.872927 V 85.984252 H 74.14164 V 85.03937 h -0.440853 -6.82786 v -0.944882 h 3.993215 3.275498 v -0.944882 h -6.110144 -1.158569 l 2.612842,-4.587017 1.37004,-5.101802 2.5087,-2.508699 -4.789017,-0.08595 -0.948194,0.944882 h 0.404198 6.965165 l 1.641647,0.944882 h -5.772166 -3.672417 l -0.213968,0.944881 h 6.72103 4.579167 l 1.641647,0.944882 h -3.386168 -9.65197 l -0.01054,0.944882 h 1.158569 11.338583 2.193169 l 1.641646,0.944882 H 82.20472 70.866138 66.872923 v 0.944882 h 6.82786 11.145754 l 0.674405,0.388167 2.377213,4.684618 4.008794,4.008794 1.631582,1.631582 2.672529,-2.67253 4.0088,4.008794 4.00879,4.008795 2.67253,2.672529 2.67253,-2.672529 4.0088,4.008794 1.33626,1.336265 2.67253,-4.562293 v -5.669292 -5.669291 -5.669291 l 2.25333,-4.735931 1.01292,-1.711354 h -7.26871 v 0.944882 h 7.26871 v 0.944882 h -4.63708 -2.63163 v 0.944881 h 5.46628 1.80243 v 0.944882 h -7.26871 v 0.944882 h 7.26871 v 0.944882 h -4.63708 -2.63163 v 0.944882 h 5.46628 1.80243 v 0.944882 h -7.26871 v 0.944882 h 7.26871 v 0.944882 h -4.63708 -2.63163 v 0.944882 h 5.46628 1.80243 v 0.944881 h -7.26871 v 0.944882 h 7.26871 v 0.944882 h -4.63708 -2.63163 v 0.944882 h 5.46628 1.80243 v 0.944882 h -7.26871 v 0.944882 h 7.26871 v 0.944882 h -4.63708 -2.63163 v 0.944882 h 5.46628 1.80243 v 0.944882 h -7.26871 v 0.944881 h 7.26871 v 0.944882 h -4.63708 -2.63163 v 0.944882 h 5.46628 1.80243 l -3.76386,4.11025 -2.17492,2.174919 2.67253,4.21823 0.53372,-0.10969 h -1.90455 -0.50011 l -2.37833,-0.94489 h 6.3418 l 0.64426,-0.94488 h -8.61307 l -1.62702,-0.94488 h 8.96712 1.63894 l 0.10166,-0.944886 h -4.57525 -7.75949 l -1.62701,-0.944881 h 6.55186 7.47172 v -0.944882 h -10.30637 -5.34423 l -1.62701,-0.944882 h 4.1366 11.33858 1.80243 v -0.944882 h -4.63708 -11.33858 -2.92897 l -1.62701,-0.944882 h 1.72133 11.33859 7.47172 v -0.944882 h -7.26871 -0.83431 -2.20335 -11.338586 -0.513708 L 97.07187,92.598421 h 10.64467 3.39635 l -1.64165,-0.944882 h -4.58935 -9.437036 l -1.627016,-0.944882 h 8.229402 5.78235 l -1.64164,-0.944881 h -6.975356 -7.021771 l -1.627016,-0.944882 h 5.814142 8.168351 l -1.64165,-0.944882 H 93.543303 88.936791 L 87.309775,86.92913 h 3.398882 10.554353 L 99.621361,85.984252 H 99.212598 87.874016 85.682763 L 84.055747,85.03937 h 0.983623 11.338583 1.601761 L 96.338068,84.094488 H 93.543307 82.428732 l -1.627016,-0.944882 h 9.906945 3.98776 L 93.054774,82.204724 H 87.874016 79.1747 l -1.627016,-0.944881 h 7.491686 6.373758 l -1.641647,-0.944882 h -7.566757 -6.284056 l -1.627015,-0.944882 h 5.076426 8.759755 l -1.641646,-0.944882 h -9.952755 -9.662506 v 0.944882 h 1.158569 6.110144 v 0.944882 h -3.275498 -3.993215 v 0.944882 h 6.82786 0.440853 v 0.944881 h -7.268713 2.834646 2.834646 -2.834646 -2.834646 l 57.371693,20.659656 2.37408,-1.00981 2.37408,-1.00981 -2.37408,1.00981 -2.37408,1.00981 4.74816,-2.01962 4.00879,-4.008792 4.0088,-4.008795 4.00879,-4.008794 3.29744,-4.30345 0.94062,-5.27967 4.0088,-4.008795 4.00879,-4.008794 5.28836,-0.919659 2.47981,0.568131 h -5.13747 -6.78224 l -0.73464,0.944882 h 10.35153 2.91935 l 0.61654,0.944882 h -0.70125 -11.33858 -2.58224 l -0.73465,0.944881 h 6.15154 9.82171 l 1.55348,2.380814 -1.42176,5.08038 2.81631,4.50274 2.52875,4.621847 1.70931,4.961273 3.63575,3.635753 -2.26245,2.262456 0.66755,0.90119 h 9.26911 l -0.61653,-0.94488 h -2.18942 -7.16307 l -0.69992,-0.94488 h 5.02834 4.40753 l -0.61653,-0.944882 h -6.62564 -2.89361 l -0.69992,-0.944881 h 0.75888 8.84375 l -0.61653,-0.944882 h -9.68601 l -0.69992,-0.944882 h 7.828 1.94139 l -0.61653,-0.944882 h -4.1595 -11.33859 -11.33858 l -1.21195,-0.944882 h 9.71589 11.33858 6.37761 l -0.61653,-0.944882 h -8.59573 -11.33858 -7.83897 l -0.95773,-0.944882 h 5.96206 11.33858 10.81383 l -0.61653,-0.944882 h -1.69336 -11.33859 -11.33858 -4.08515 l -0.95773,-0.944882 h 2.20823 11.33859 11.33858 3.91147 l -0.61653,-0.944881 h -6.12959 -2.89344 l -0.58898,-0.944882 h 0.64778 8.34769 l -0.61653,-0.944882 h -8.96793 l -0.58898,-0.944882 h 7.49504 1.44533 l -0.61653,-0.944882 h -3.66345 -5.24938 l -0.58898,-0.944882 h 3.00372 5.88155 l -0.61653,-0.944882 h -8.09967 -0.75805 l -0.58899,-0.944882 h 8.83017 l -0.61653,-0.944882 h -1.19731 -7.60531 l -0.58899,-0.944881 h 5.35966 3.41541 l -0.61653,-0.944882 h -5.63353 -3.11399 l -0.58899,-0.944882 h 0.86834 7.85163 l -0.61653,-0.944882 h -8.69242 l -0.58899,-0.944882 h 7.7156 0.94927 l -0.61653,-0.944882 h -3.16739 -5.46993 l -0.58898,-0.944882 h 3.22427 5.38549 l -0.61653,-0.944882 h -7.60361 -9.72082 l -0.73465,0.944882 h 1.95153 7.2219 l -0.73414,0.944882 h -3.65311 -5.52083 l -0.73464,0.944882 h 9.09012 l -0.64982,0.944882 h -7.85412 -1.32083 l -0.73464,0.944882 h 4.89011 4.28534 l -0.73415,0.944882 h -0.71654 -8.45941 l -0.73465,0.944882 h 0.69012 8.48634 l -0.73414,0.944881 h -4.91755 -4.25941 l -0.73465,0.944882 h 7.8287 1.34877 l -0.73415,0.944882 h -9.11855 l -0.79406,0.944882 h 3.6287 5.54977 l -0.73414,0.944882 h -1.98098 -7.198 l -0.73464,0.944882 h 9.17948 l -0.73415,0.944882 h -6.18198 -2.998 l -0.73465,0.944882 h 6.56729 2.6132 l -0.73414,0.944882 h -9.18099 l -0.73465,0.944881 h 2.36729 6.81421 l -0.73415,0.944882 h -3.24541 -5.93659 l -0.73464,0.944882 h 9.1825 l -0.73414,0.944882 h -7.44642 -1.73659 l -0.73464,0.944882 h 5.30587 3.87764 l -0.73415,0.944882 h -9.18401 l -0.73465,0.944882 h 1.10588 8.07864 l -0.73414,0.944882 h -4.50985 -4.67517 l -0.73465,0.944882 h 8.24446 0.94107 l -0.73415,0.944881 h -8.71085 -0.47518 l -0.73464,0.944882 h 4.04446 5.14207 l -0.73414,0.94488 h -1.57328 -7.61376 l -1.36997,1.76202 5.627,0.1021 4.19587,-0.91924 h -9.18754 l -0.63533,0.81714 0.63533,-0.81714 -0.63533,0.81714 0.63533,-0.81714 -0.63533,0.81714 62.89485,-0.81714 1.8087,-2.085455 1.8087,-2.085459 -1.8087,2.085459 -1.8087,2.085455 3.6174,-4.170914 1.66526,-4.979517 v -5.669292 -5.669291 -5.669291 l 1.94524,-4.863547 -4.44611,-0.159246 h -2.78179 v 0.944882 h 5.61644 1.61146 v 0.944882 h -7.2279 v 0.944881 h 7.2279 v 0.944882 h -4.44611 -2.78179 v 0.944882 h 5.61644 1.61146 v 0.944882 h -7.2279 v 0.944882 h 7.2279 v 0.944882 h -4.44611 -2.78179 v 0.944882 h 5.61644 1.61146 v 0.944882 h -7.2279 v 0.944882 h 7.2279 l 3.35389,4.215178 2.71846,-2.626604 2.67253,2.672529 4.00879,-4.008794 1.33627,-1.336265 2.67253,2.67253 4.00879,-4.008795 1.33626,-1.336265 2.67253,2.67253 4.0088,-4.008794 1.33626,-1.336265 2.67253,2.672529 4.0088,-4.008794 1.33626,-1.336265 2.67253,2.67253 2.67253,-2.67253 2.67253,2.67253 0.34182,-3.964686 h -5.59389 -3.40861 l -2.83159,0.944882 h 9.07485 2.74323 l -0.016,0.944882 h -11.23117 -3.4025 l -2.83159,0.944881 h 9.06873 8.38052 l -0.016,0.944882 h -5.52986 -11.33858 -3.39639 l -2.8316,0.944882 h 9.06263 11.33859 1.11983 l -3.12485,0.944882 h -6.49892 -11.33858 -3.39029 l -2.83159,0.944882 h 9.05652 11.33858 0.53943 l -3.12486,0.944882 h -5.9185 -11.33858 -3.38418 l -2.83159,0.944882 h 9.05041 11.29759 l -3.12485,0.944882 h -5.33809 -11.33859 -3.37806 l -2.8316,0.944882 h 9.04431 10.71718 l -3.12486,0.944881 h -4.75767 -11.33859 -3.37196 -3.52051 -4.44611 -2.78179 v 0.944882 h 5.61644 11.33858 10.13676 l -3.12485,0.944882 h -4.17727 -11.33858 -8.45108 v 0.944882 h 11.28573 9.55634 l -3.12485,0.944882 h -3.59685 -11.33858 -2.78179 v 0.944882 h 5.61644 11.33858 l 3.20438,0.944882 h -11.70832 -8.45108 v 0.944882 h 11.28573 11.33858 0.61594 l 3.42265,1.049708 3.30352,4.300926 2.04153,2.041532 2.67253,-2.672529 4.0088,4.008794 4.00879,4.008791 1.02114,0.49112 h 7.25156 2.75329 l -0.016,-0.94488 h -5.57194 -7.20341 l -2.78651,-0.94488 h 7.15527 8.39058 l -0.016,-0.944882 h -11.20921 -7.10713 l -2.78651,-0.944881 h 7.05899 11.33859 2.68926 l -2.69214,-0.944882 h -2.83177 -11.33858 -7.01085 l -2.78651,-0.944882 h 6.96271 11.33858 2.58557 l -3.08085,-0.944882 h -2.33936 -11.33858 -6.91457 l -2.78651,-0.944882 h 6.86643 11.33858 2.09316 l -3.08084,-0.944882 h -1.84696 -11.33858 -6.81829 l -2.7865,-0.944882 h 6.77014 11.33858 1.60076 l -3.08085,-0.944882 h -1.35455 -11.33859 -6.722 l -2.7865,-0.944882 h 6.67386 11.33858 1.10835 l -3.08085,-0.944881 h -0.86214 -11.33859 -11.33858 -2.78179 v 0.944881 h 5.61644 1.61146 v 0.944882 h -7.2279 v 0.944882 h 7.2279 v 0.944882 h -4.44611 -2.78179 v 0.944882 h 5.61644 1.61146 v 0.944882 h -7.2279 v 0.944882 h 7.2279 v 0.944882 h -4.44611 -2.78179 v 0.944882 h 5.61644 1.61146 v 0.944881 h -7.2279 v 0.944882 h 7.2279 v 0.94488 h -4.44611 -2.78179 l 4.44081,1.86412 2.78709,-0.91924 h -1.61146 -5.61644 2.80822 2.80822 -2.80822 -2.80822 l 58.23896,-3.779523 1.44979,-2.230975 1.4498,-2.230974 -1.4498,2.230974 -1.44979,2.230975 2.89959,-4.461949 4.27602,3.741561 4.0088,4.008791 2.67253,-2.672526 2.67253,2.672526 2.67253,-2.672526 2.67253,2.672526 2.67253,-2.672526 2.67253,2.672526 2.67253,-2.672526 2.67252,2.672526 2.67253,-2.672526 2.67253,2.672526 2.67253,-2.672526 2.67253,2.672526 2.67253,-2.672526 2.67253,2.672526 2.67253,-2.672526 2.69721,3.163646 h -4.54484 -11.33858 -11.33859 -11.33858 -11.33858 -2.04941 l -0.9723,-0.94488 h 11.52565 11.33858 11.33858 11.33858 7.37949 v -0.94488 h -10.21413 -11.33858 -11.33859 -11.33858 -9.3108 l -0.31774,-0.944882 h 6.79389 11.33859 11.33858 11.33858 11.33859 1.71019 l -0.0247,-3.514836 -5.42398,0.592227 -2.59361,2.593605 -2.67253,-2.67253 -2.67253,2.67253 -2.67253,-2.67253 -2.67253,2.67253 -2.67253,-2.67253 -2.67252,2.67253 -2.67253,-2.67253 -2.67253,2.67253 -2.67253,-2.67253 -2.67253,2.67253 -2.67253,-2.67253 -2.67253,2.67253 -2.67253,-2.67253 -2.67253,2.67253 -4.0088,-4.008794 -1.33626,-5.115793 2.67253,-4.238061 1.4143,1.414301 V 85.03937 l 5.00859,2.388412 3.89918,2.335998 h 7.75149 11.33858 11.33858 l 0.11078,-0.944882 h -2.94542 -11.33858 -11.33859 -6.49401 l -1.57717,-0.944882 h 5.23654 11.33858 11.33858 5.78007 v -0.944882 h -8.61471 -11.33859 -11.33858 -3.97906 l -1.57717,-0.944882 h 2.72159 11.33858 11.33858 11.33858 l 0.11078,-2.834646 -5.65111,-0.151738 h -5.66929 -5.66929 -5.6693 -5.66929 -5.66929 l -5.42131,-0.772887 -1.44262,-5.068908 -2.3646,-4.689843 -0.30793,-1.635448 9.40751,0.03536 h 11.33858 11.33858 11.33858 7.37949 v 0.944882 h -4.54484 -11.33858 -11.33859 -11.33858 -11.33858 -2.51056 l -0.79943,0.944882 h 6.14463 11.33859 11.33858 11.33858 11.33859 1.71019 v 0.944881 h -10.21413 -11.33858 -11.33859 -11.33858 -9.45474 l -0.23455,0.944882 h 1.18535 11.33859 11.33858 11.33858 11.33858 7.37949 v 0.944882 h -4.54484 -11.33858 -11.33859 -11.33858 -11.33858 -4.0853 v 0.944882 h 6.91994 11.33859 11.33858 11.33858 11.33859 1.71019 v 0.944882 h -10.21413 -11.33858 -11.33859 -11.33858 -9.75459 v 0.944882 h 1.25065 6.01791 v 0.944882 h -3.18326 -4.0853 v 0.944882 h 6.91994 l 0.34862,0.944882 h -7.26856 v 0.944881 h 1.25065 6.01791 l 5.41481,0.793144 h 5.6693 5.66929 5.66929 5.66929 5.66929 l 5.6521,0.143513 -8.58088,0.0082 h -11.33859 -11.33858 -11.33858 -4.0853 v 0.944882 h 6.91994 11.33859 11.33858 11.33858 5.78007 v 0.944882 h -2.94542 -11.33858 -11.33859 -11.33858 -1.4641 -1.02193 -7.26856 v 0.944882 h 1.25065 6.01791 v 0.944882 h -3.18326 -4.0853 v 0.944882 h 6.91994 l 0.34862,0.944882 h -7.26856 v 0.944882 h 1.25065 6.01791 v 0.944881 h -3.18326 -4.0853 v 0.944882 h 6.91994 l 0.34862,0.944882 h -7.26856 v 0.944882 h 1.25065 6.01791 v 0.944882 h -3.18326 -4.0853 v 0.944882 h 6.91994 l 5.33889,1.837505 1.61302,1.613018 2.67253,-2.67253 2.67253,2.67253 2.67253,-2.67253 2.67253,2.67253 2.67253,-2.67253 2.67253,2.67253 2.67252,-2.67253 2.67253,2.67253 2.67253,-2.67253 2.67253,2.67253 2.67253,-2.67253 2.67253,2.67253 4.34968,-3.185832 h 3.66791 l 0.0247,0.680191 h -10.21413 -11.33858 -11.33859 -11.33858 -9.75459 v 0.944882 h 1.25065 11.33859 11.33858 11.33858 11.33858 7.37949 v 0.944882 h -4.54484 -11.33858 -11.33859 -11.33858 -11.33858 -4.07039 2.03519 2.0352 -2.0352 -2.03519 L 60.740358,199.7119 l -2.486178,0.54147 -2.486179,0.54147 2.486179,-0.54147 2.486178,-0.54147 -4.972357,1.08294 -2.31741,2.31741 -2.672529,-2.67253 -2.67253,2.67253 -2.672529,-2.67253 -2.67253,2.67253 -2.672529,-2.67253 -2.67253,2.67253 -2.67253,-2.67253 -2.672529,2.67253 -2.67253,-2.67253 -2.672529,2.67253 -2.67253,-2.67253 -2.672529,2.67253 -2.67253,-2.67253 -2.67253,2.67253 -2.672529,-2.67253 -4.0087945,4.00879 -1.3362648,5.11579 2.9017963,4.46733 2.443263,2.44326 2.672529,-2.67252 2.67253,2.67252 2.67253,-2.67252 2.672529,2.67252 2.67253,-2.67252 2.672529,2.67252 2.67253,-2.67252 2.672529,2.67252 2.67253,-2.67252 2.67253,2.67252 2.672529,-2.67252 2.67253,2.67252 2.672529,-2.67252 2.67253,2.67252 2.672529,-2.67252 2.67253,4.56229 v 5.66929 l 1.794798,4.92586 0.22991,2.53625 H 48.188976 36.850394 25.511811 14.173228 2.8346457 l -0.1608186,-0.94488 h 8.6647559 11.338582 11.338583 11.338583 11.338582 2.702595 l 0.684596,-0.94488 H 53.858268 42.519685 31.181102 19.84252 8.503937 2.6738271 v -0.94488 h 2.9954642 11.3385827 11.338583 11.338582 11.338583 9.467979 l 0.199371,-0.94488 H 59.527559 48.188976 36.850394 25.511811 14.173228 2.8346457 l -0.1608186,-0.94489 h 8.6647559 11.338582 11.338583 11.338583 11.338582 4.049167 v -0.94488 H 53.858268 42.519685 31.181102 19.84252 8.503937 2.6738271 v -0.94488 H 5.6692913 17.007874 28.346457 39.685039 51.023622 60.74208 v -0.94488 h -1.214521 -6.054268 v -0.94488 h 3.219622 4.049167 v -0.94489 h -6.883812 -0.384977 v -0.94488 h 7.268789 v -0.94488 h -1.214521 -6.054268 v -0.94488 h 3.219622 4.049167 v -0.94488 H 53.858268 42.519685 31.181102 19.84252 8.503937 5.134498 L 3.9457472,217.32283 H 5.6692913 17.007874 28.346457 39.685039 51.023622 60.74208 l -0.0067,-0.94488 H 59.527559 48.188976 36.850394 25.511811 14.173228 3.2494142 l -0.4023476,-0.94488 h 8.4915164 11.338582 11.338583 11.338583 11.338582 3.93113 l -0.329078,-0.94488 H 53.858268 42.519685 31.181102 19.84252 8.503937 2.6755401 l -0.042381,-0.94488 h 3.0361319 11.338583 11.338583 11.338582 11.338583 8.723221 l -0.939935,-0.94488 H 48.188976 36.850394 25.511811 14.173228 2.8346457 l -0.2014863,-0.94489 h 8.7054236 11.338582 11.338583 11.338583 11.242698 l -5.666058,-0.068 -5.669289,0.005 -5.66929,0.005 -5.669289,0.005 -5.669289,0.005 -5.669289,0.005 -5.669289,0.005 -5.669289,0.005 -1.3441884,-0.91208 H 8.503937 2.6331594 v -0.94488 H 5.6692913 9.9017586 V 208.8189 H 2.8346457 l -0.2014863,-0.94488 h 7.2685992 v -0.94489 H 8.503937 2.6331594 v -0.94488 h 3.0361319 11.3385827 11.338583 11.338582 11.338583 9.681512 l 0.0053,-0.94488 H 59.527559 48.188976 36.850394 25.511811 14.173228 2.8346457 l -0.1848975,-0.94488 h 8.6888348 11.338582 11.338583 11.338583 11.338582 4.022834 l 0.0053,-0.94488 H 53.858268 42.519685 31.181102 19.84252 8.503937 2.7685068 l 0.3376829,-0.94489 h 2.5631016 11.3385827 11.338583 11.338582 11.338583 9.702737 l 0.0053,-0.94488 H 59.527559 48.188976 36.850394 25.511811 14.173228 3.7154656 l 0.9838592,-0.94488 h 6.6392582 11.338582 11.338583 11.338583 11.338582 4.044058 l 0.0034,-0.60306 -0.0034,0.60306 0.0034,-0.60306 -0.0034,0.60306 0.0034,-0.60306 26.41886,3.43771 -0.06768,1.88976 -0.06768,1.88976 0.06768,-1.88976 0.06768,-1.88976 -0.135359,3.77952 h 0.850157 6.418442 v 0.94489 h -3.583797 -3.684802 v 0.94488 h 6.519448 0.749151 v 0.94488 h -7.268599 v 0.94488 h 0.850157 6.418442 v 0.94488 h -3.583797 -3.684802 v 0.94489 h 6.519448 0.749151 v 0.94488 h -7.268599 v 0.94488 h 0.850157 6.418442 v 0.94488 h -3.583797 -3.684802 v 0.94488 h 6.519448 0.749151 v 0.94488 h -7.268599 v 0.94489 h 0.850157 6.418442 v 0.94488 h -3.583797 -3.684802 v 0.94488 h 6.519448 0.749151 v 0.94488 h -7.268599 v 0.94488 h 0.850157 6.418442 v 0.94489 h -3.583797 -3.684802 l 0.219002,5.64805 2.348321,2.85588 h 3.952125 11.33858 11.33858 11.33859 10.85518 l 1.24766,-0.94488 h -3.59891 -11.33858 -11.33858 -11.33859 -11.338576 -2.3399 l -0.70626,-0.94488 h 11.550097 11.338579 11.33858 11.33859 7.11811 l 0.41148,-0.94488 H 130.3937 119.05512 107.71654 96.377953 87.249161 l -0.17936,-0.94488 h 6.473506 11.338583 11.33858 11.33859 11.33858 2.05966 l 0.0511,-0.94489 h -4.94538 -11.33858 -11.33858 -11.33859 -11.338579 -3.684802 v -0.94488 h 0.850157 11.338582 11.338582 11.33858 11.33859 7.78002 v -0.94488 H 130.3937 119.05512 107.71654 96.377953 87.023859 v -0.94488 h 6.519448 0.749151 v -5.66929 -5.66929 -5.6693 l -0.753923,-1.14435 4.008794,-4.0088 1.336265,-1.33626 2.672526,2.67253 2.67253,-2.67253 4.0088,4.00879 1.33626,1.33627 2.67253,-2.67253 2.67253,2.67253 2.67253,-2.67253 2.67253,2.67253 2.67253,-2.67253 2.67253,2.67253 2.67253,-2.67253 2.67253,2.67253 2.67253,-2.67253 2.67253,4.56229 v 5.66929 5.66929 l -2.02407,4.8309 -0.53532,0.53532 v -0.44233 h 5.15802 2.11073 v -0.94488 h -4.94538 -2.32337 v -0.94489 h 7.26875 v -0.94488 h -7.26875 v -0.94488 h 5.15802 2.11073 v -0.94488 h -4.94538 -2.32337 v -0.94488 h 7.26875 v -0.94489 h -7.26875 v -0.94488 h 5.15802 2.11073 v -0.94488 h -4.94538 -2.32337 v -0.94488 h 7.26875 v -0.94488 h -7.26875 v -0.94488 h 5.15802 2.11073 v -0.94489 h -4.94538 -2.32337 v -0.94488 h 7.26875 v -0.94488 h -7.26875 v -0.94488 h 5.15802 2.11073 v -0.94488 h -4.94538 -2.32337 v -0.94489 h 7.26875 v -0.94488 H 130.3937 119.05512 107.71654 96.377953 87.023859 v -0.94488 h 6.519448 11.338583 11.33858 11.33859 11.33858 2.11073 l -0.0184,-0.94488 h -4.92694 -11.33858 -11.33858 -11.33859 -11.338579 -3.66821 l 2.049657,-3.77953 h 1.618553 11.338579 11.33859 11.33858 11.33858 2.86969 l 0.98727,0.94488 H 138.89768 127.5591 116.22051 104.88193 93.543347 88.106269 l -0.609312,0.94488 h 8.881036 11.338587 11.33858 11.33858 10.10755 l 0.35666,0.94489 h -7.62956 -11.33859 -11.33858 -11.338582 -11.338582 -0.714798 0.714798 -0.714798 0.714798 -0.714798 l 81.230882,1.88976 1.3259,2.28544 1.32589,2.28545 -1.32589,-2.28545 -1.3259,-2.28544 2.65179,4.57089 v 5.66929 5.66929 5.66929 l -1.73232,4.95174 -0.51069,0.51069 -0.40878,-0.5845 h 4.52329 2.70461 v -0.94488 h -5.53926 -1.68864 v -0.94488 h 7.2279 v -0.94488 h -7.2279 v -0.94488 h 4.52329 2.70461 v -0.94489 h -5.53926 -1.68864 v -0.94488 h 7.2279 v -0.94488 h -7.2279 v -0.94488 h 4.52329 2.70461 v -0.94488 h -5.53926 -1.68864 v -0.94489 h 7.2279 v -0.94488 h -7.2279 v -0.94488 h 4.52329 2.70461 v -0.94488 h -5.53926 -1.68864 v -0.94488 h 7.2279 v -0.94489 h -7.2279 v -0.94488 h 4.52329 2.70461 l 2.39939,1.13904 1.04209,-1.0421 2.67253,2.67253 2.67253,-2.67253 2.67253,2.67253 2.67253,-2.67253 2.67253,2.67253 2.67253,-2.67253 2.67253,2.67253 2.67253,-2.67253 2.67253,2.67253 2.67253,-2.67253 2.67253,2.67253 2.67253,-2.67253 3.69033,4.14071 v 0.48676 h -5.05639 -11.33858 -11.33859 -3.11157 l -1.57006,-0.94488 h 1.84699 11.33858 11.33858 7.89104 v -0.94488 h -10.72568 -11.33858 -11.33859 -0.58241 l -1.57007,-0.94488 h 10.65642 11.33858 11.33859 2.22174 v -0.94489 h -5.05639 -11.33858 -11.33859 -9.39183 l -1.57007,-0.94488 h 8.12726 11.33858 11.33858 7.89104 v -0.94488 h -10.72568 -11.33858 -11.33859 -11.33858 -1.68864 v -0.94488 h 7.2279 v -0.94488 h -7.2279 v -0.94488 h 4.52329 2.70461 v -0.94489 h -5.53926 -1.68864 v -0.94488 h 7.2279 v -0.94488 h -7.2279 v -0.94488 h 4.52329 2.70461 v -0.94488 h -5.53926 -1.68864 v -0.94489 h 7.2279 l 4.70318,-2.40606 1.41083,-1.41082 2.67253,2.67253 2.67253,-2.67253 2.67253,2.67253 2.67253,-2.67253 2.67253,2.67253 2.67253,-2.67253 2.67253,2.67253 2.67253,-2.67253 2.67253,2.67253 2.67253,-2.67253 2.67253,2.67253 2.67253,-2.67253 2.67252,2.67253 2.67253,-2.67253 2.90049,2.90049 -0.94555,-0.0285 H 209.76378 198.4252 187.08661 175.74803 168.3901 l 1.74771,-5.13033 0.65879,-0.53896 h 10.62072 11.33859 11.33858 11.33858 6.61484 v 0.94488 h -3.78019 -11.33859 -11.33858 -11.33858 -11.33858 -3.27175 l -0.66396,0.94488 h 6.77035 11.33858 11.33859 11.33858 11.33858 0.94555 v 0.94489 h -9.44948 -11.33859 -11.33858 -11.33858 -9.99655 l -0.1631,0.94488 h 1.65571 11.33858 11.33859 11.33858 11.33858 6.61484 v 0.94488 h -3.78019 -11.33859 -11.33858 -11.33858 -11.33858 -4.52329 2.26165 2.26164 -2.26164 -2.26165 76.2253 l 1.76759,-2.10249 1.76758,-2.10248 -1.76758,2.10248 -1.76759,2.10249 3.53517,-4.20497 0.39468,-0.39468 2.67253,2.67253 2.67253,-2.67253 2.67253,2.67253 2.67253,-2.67253 2.67253,2.67253 2.67253,-2.67253 4.00879,4.00879 4.0088,4.0088 v 5.66929 5.66929 l -0.6878,5.38439 -3.93688,4.03859 v 2.27719 h 6.98729 l 0.28146,-0.94488 h -3.11611 -4.15264 v -0.94488 h 1.318 5.95075 v -0.94488 h -7.26875 v -0.94488 h 6.98729 l 0.28146,-0.94489 h -3.11611 -4.15264 v -0.94488 h 1.318 5.95075 v -0.94488 h -7.26875 V 223.937 h 6.98729 l 0.28146,-0.94488 h -3.11611 -4.15264 v -0.94489 h 1.318 5.95075 v -0.94488 h -7.26875 v -0.94488 h 6.98729 l 0.28146,-0.94488 h -3.11611 -4.15264 v -0.94488 h 1.318 5.95075 v -0.94489 h -7.26875 v -0.94488 h 6.98729 l 0.28146,-0.94488 h -3.11611 -4.15264 v -0.94488 h 1.318 5.95075 v -0.94488 h -7.26875 v -0.94488 h 6.98729 l 0.28146,-0.94489 h -3.11611 -4.15264 v -0.94488 h 1.318 5.95075 v -0.94488 h -7.26875 v -0.94488 h 6.98729 l 0.28146,-0.94488 h -3.11611 -4.15264 v -0.94489 h 1.318 5.95075 l 3.2272,-4.3431 2.14631,-2.14631 2.67253,2.67253 2.67253,-2.67253 2.67253,2.67253 2.67253,-2.67253 4.0088,4.00879 2.07392,2.07393 1.41579,-0.53819 h -9.67037 -11.33858 -11.33859 -11.33858 -10.50271 v -5.66929 h 4.83342 11.33858 11.33858 11.33859 11.33858 4.00108 v 0.94488 h -1.16643 -11.33859 -11.33858 -11.33858 -11.33859 -7.66806 v 0.94488 h 10.50271 11.33858 11.33859 11.33858 9.67037 v 0.94489 h -6.83573 -11.33858 -11.33858 -11.33858 -11.33859 -1.99877 v 0.94488 h 4.83342 11.33858 11.33858 11.33859 11.33858 4.00108 v 0.94488 h -1.16643 -11.33859 -11.33858 -11.33858 -11.33859 -7.66806 2.83464 2.83465 -2.83465 -2.83464"
         inkscape:connector-curvature="0" />
    </g>
    <g
       inkscape:label="color block 2"
       id="__color_block_1__">
      <path
         id="path915"
         transform="scale(0.264583)"
         style="fill:none;stroke:#ff6805;stroke-width:0.40000001"
         embroider_manual_stitch="true"
         d="m 222.80501,129.9689 1.68747,-0.50202 -1.68747,0.50202 1.68747,-0.50202 -1.68747,0.50202 1.68747,-0.50202 -3.17054,-4.35601 -4.0088,-4.00879 -0.83825,-0.83825 -2.67252,2.67253 -2.67253,-2.67253 -2.67253,2.67253 -2.67253,-2.67253 -4.0088,4.00879 -1.33626,1.33627 -2.67253,-2.67253 -2.67253,2.67253 -2.67253,-2.67253 -2.67253,2.67253 -2.67253,-2.67253 -4.00879,4.00879 -1.33627,1.33627 -2.67253,-2.67253 -2.67253,2.67253 -2.67253,-2.67253 -2.67253,2.67253 -2.67253,-2.67253 -4.00879,4.00879 -1.33627,1.33627 -2.67253,-2.67253 -2.67253,2.67253 -2.67253,-2.67253 -2.67252,2.67253 -2.67253,-2.67253 -2.67253,2.67253 -2.67253,-2.67253 -2.67253,2.67253 -4.0088,-4.0088 -1.33626,-1.33626 -2.67253,2.67253 -2.67253,-2.67253 -2.67253,2.67253 -2.67253,-2.67253 -2.67253,2.67253 -4.00879,-4.0088 -1.33627,-1.33626 -2.67253,2.67253 -2.67253,-2.67253 -2.67253,2.67253 -2.67253,-2.67253 -2.67253,2.67253 -4.00879,-4.00879 -1.336266,-1.33627 -2.67253,2.67253 -2.672529,-2.67253 -2.67253,2.67253 -2.672529,-2.67253 -2.67253,2.67253 -4.008794,-4.00879 -1.336265,-1.33627 -2.67253,2.67253 -2.672529,-2.67253 -2.67253,2.67253 -2.672529,-2.67253 -2.67253,2.67253 -4.008794,-4.00879 -1.336265,-1.33627 -2.67253,2.67253 -2.672529,-2.67253 -2.67253,2.67253 -2.672529,-2.67253 -2.67253,2.67253 -4.008794,-4.00879 -1.336265,-1.33627 -2.672529,2.67253 -2.67253,-2.67253 -2.67253,2.67253 -2.672529,-2.67253 -2.771191,2.77119 -5.433931,-1.61656 -5.433931,-1.61655 -4.145084,-1.23314 h 11.225593 11.338583 11.338582 11.338583 11.338583 11.338582 11.338583 11.338583 11.33858 11.33859 11.33858 11.33858 11.33858 11.33859 11.33858 11.33858 11.33858 11.33859 11.33858 11.33858 11.33858 11.33859 11.33858 11.33858 1.77689 l -3.17615,0.94488 H 277.79528 266.45669 255.11811 243.77953 232.44094 221.10236 209.76378 198.4252 187.08661 175.74803 164.40945 153.07087 141.73228 130.3937 119.05512 107.71654 96.377953 85.03937 73.700787 62.362205 51.023622 39.685039 28.346457 17.462362 l 3.176145,0.94488 h 10.542595 11.338583 11.338583 11.338582 11.338583 11.338583 11.338582 11.338582 11.33858 11.33859 11.33858 11.33858 11.33858 11.33859 11.33858 11.33858 11.33859 11.33858 11.33858 11.33858 11.33859 11.33858 11.33858 1.09389 l -3.17615,0.94489 H 272.12598 260.7874 249.44882 238.11024 226.77165 215.43307 204.09449 192.75591 181.41732 170.07874 158.74016 147.40157 136.06299 124.72441 113.38583 102.04724 90.708661 79.370079 68.031496 56.692913 45.354331 34.015748 23.814651 l 3.176145,0.94488 h 9.859598 11.338582 11.338583 11.338583 11.338582 11.338583 11.338583 11.33858 11.33859 11.33858 11.33858 11.33858 11.33859 11.33858 11.33858 11.33858 11.33859 11.33858 11.33858 11.33858 11.33859 11.33858 0.41089 l -3.17614,0.94488 H 266.45669 255.11811 243.77953 232.44094 221.10236 209.76378 198.4252 187.08661 175.74803 164.40945 153.07087 141.73228 130.3937 119.05512 107.71654 96.377953 85.03937 73.700787 62.362205 51.023622 39.685039 30.16694 l 3.176145,0.94488 h 9.1766 11.338583 11.338582 11.338583 11.338583 11.338582 11.338582 11.33858 11.33859 11.33858 11.33858 11.33858 11.33859 11.33858 11.33858 11.33859 11.33858 11.33858 11.33858 11.33859 11.06647 l -3.17614,0.94488 H 260.7874 249.44882 238.11024 226.77165 215.43307 204.09449 192.75591 181.41732 170.07874 158.74016 147.40157 136.06299 124.72441 113.38583 102.04724 90.708661 79.370079 68.031496 56.692913 45.354331 36.51923 l 3.176144,0.94489 h 8.493602 11.338583 11.338583 11.338582 11.338583 11.338583 11.33858 11.33859 11.33858 11.33858 11.33858 11.33859 11.33858 11.33858 11.33858 11.33859 11.33858 11.33858 11.33858 10.38348 l -3.17614,0.94488 H 255.11811 243.77953 232.44094 221.10236 209.76378 198.4252 187.08661 175.74803 164.40945 153.07087 141.73228 130.3937 119.05512 107.71654 96.377953 85.03937 73.700787 62.362205 51.023622 42.871519 L 46.047663,120 h 7.810605 11.338582 11.338583 11.338583 11.338582 11.338582 11.33858 11.33859 11.33858 11.33858 11.33858 11.33859 11.33858 11.33858 11.33859 11.33858 11.33858 11.33858 9.70048 l -3.17614,0.94488 H 249.44882 238.11024 226.77165 215.43307 204.09449 192.75591 181.41732 170.07874 158.74016 147.40157 136.06299 124.72441 113.38583 102.04724 90.708661 79.370079 68.031496 56.692913 49.223808 l 3.176145,0.94488 h 7.127606 11.338583 11.338582 11.338583 11.338583 11.33858 11.33859 11.33858 11.33858 11.33858 11.33859 11.33858 11.33858 11.33858 11.33859 11.33858 11.33858 9.01748 l -3.17614,0.94489 H 243.77953 232.44094 221.10236 209.76378 198.4252 187.08661 175.74803 164.40945 153.07087 141.73228 130.3937 119.05512 107.71654 96.377953 85.03937 73.700787 62.362205 55.576097 l 3.176145,0.94488 h 6.444608 11.338583 11.338583 11.338582 11.338582 11.33858 11.33859 11.33858 11.33858 11.33858 11.33859 11.33858 11.33858 11.33859 11.33858 11.33858 8.33448 l -3.17614,0.94488 H 238.11024 226.77165 215.43307 204.09449 192.75591 181.41732 170.07874 158.74016 147.40157 136.06299 124.72441 113.38583 102.04724 90.708661 79.370079 68.031496 61.928386 l 3.176145,0.94488 h 5.761611 11.338582 11.338583 11.338583 11.33858 11.33859 11.33858 11.33858 11.33858 11.33859 11.33858 11.33858 11.33858 11.33859 11.33858 7.65148 l -3.17614,0.94488 H 232.44094 221.10236 209.76378 198.4252 187.08661 175.74803 164.40945 153.07087 141.73228 130.3937 119.05512 107.71654 96.377953 85.03937 73.700787 68.280676 l 3.176144,0.94489 h 5.078613 11.338583 11.338582 11.338582 11.33858 11.33859 11.33858 11.33858 11.33858 11.33859 11.33858 11.33858 11.33859 11.33858 6.96849 l -3.17615,0.94488 h -0.9577 -11.33858 -11.33858 -11.33858 -11.33859 -11.33858 -11.33858 -11.33859 -11.33858 -11.33858 -11.33858 -11.33859 -11.338579 -11.338582 -4.737114 l 3.176144,0.94488 h 4.395615 11.338583 11.338583 11.33858 11.33859 11.33858 11.33858 11.33858 11.33859 11.33858 11.33858 11.33858 11.33859 6.28549 l -5.43393,1.61656 -5.43394,1.61656 -4.75731,1.41526 -3.14325,-3.14325 -2.67253,2.67253 -2.67253,-2.67253 -2.67253,2.67253 -2.67253,-2.67253 -2.67253,2.67253 -2.67253,-2.67253 -2.67253,2.67253 -2.67253,-2.67253 -2.67253,2.67253 -2.67253,-2.67253 -2.67253,2.67253 -2.67253,-2.67253 -2.67253,2.67253 -2.67253,-2.67253 -4.00879,4.00879 -4.0088,4.0088 -4.00879,4.00879 -4.00879,4.0088 -2.67253,3.83534 1.19877,0.35663 h 0.64145 l 3.17615,-0.94488 h -6.99374 l -3.17614,-0.94488 h 8.56272 4.7833 l 3.17614,-0.94488 H 150.23622 141.332 l -3.17614,-0.94489 h 9.24571 11.33859 5.4663 l 3.17614,-0.94488 h -11.47709 -11.33858 -9.58722 l -3.17614,-0.94488 h 9.92871 11.33859 11.33858 6.1493 l 3.17614,-0.94488 h -0.8215 -11.33859 -11.33858 -11.33858 -10.27022 l -3.17614,-0.94488 h 10.61171 11.33858 11.33859 11.33858 6.8323 l 3.17614,-0.94488 h -1.5045 -11.33859 -11.33858 -11.33858 -11.33858 -10.95322 l -3.17614,-0.94489 h 11.29471 11.33858 11.33859 11.33858 11.33858 7.5153 l 3.17614,-0.94488 h -2.1875 -11.33858 -11.33859 -11.33858 -11.33858 -11.33858 -11.33859 l -3.47377,-0.94488 h 0.63913 11.33858 11.33858 11.33858 11.33859 11.33858 11.33858 8.1983 l 3.17614,-0.94488 h -2.8705 -11.33858 -11.33859 -11.33858 -11.33858 -11.33858 -11.33859 -11.33858 -0.98062 l -3.17615,-0.94488 h 1.32213 11.33858 11.33858 11.33858 11.33859 11.33858 11.33858 11.33858 8.88129 l 3.17615,-0.94489 h -3.5535 -11.33858 -11.33858 -11.33859 -11.33858 -11.33858 -11.33858 -11.33859 -11.33858 -1.66362 l -3.17615,-0.94488 h 2.00512 11.33859 11.33858 11.33858 11.33858 11.33859 11.33858 11.33858 11.33859 9.56428 l 3.17615,-0.94488 h -4.2365 -11.33858 -11.33858 -11.33859 -11.33858 -11.33858 -11.33858 -11.33859 -11.33858 -11.338582 -2.346621 l -3.176145,-0.94488 h 2.688121 11.338587 11.33858 11.33858 11.33858 11.33859 11.33858 11.33858 11.33858 11.33859 10.24728 l 3.17615,-0.94488 h -4.9195 -11.33858 -11.33858 -11.33858 -11.33859 -11.33858 -11.33858 -11.33858 -11.33859 -11.33858 -11.338583 -3.029619 l -3.176145,-0.94489 h 3.371118 11.338579 11.33859 11.33858 11.33858 11.33858 11.33859 11.33858 11.33858 11.33859 11.33858 10.93028 l 3.17615,-0.94488 H 212.59843 201.25984 189.92126 178.58268 167.24409 155.90551 144.56693 133.22835 121.88976 110.55118 99.212598 87.874016 84.161399 l -3.176145,-0.94488 h 4.054116 11.338583 11.338587 11.33858 11.33858 11.33858 11.33859 11.33858 11.33858 11.33858 11.33859 11.33858 11.33858 l 1.70265,-0.4248 -1.70265,0.4248 1.70265,-0.4248 -1.70265,0.4248 1.70265,-0.4248 -11.67517,39.14193 1.33626,0.39753 1.33627,0.39753 -1.33627,-0.39753 -1.33626,-0.39753 2.67253,0.79506 -3.20552,4.34152 -4.0088,4.0088 -3.4758,3.4758 -2.67253,-2.67253 -2.67253,2.67253 -4.0088,-4.00879 -1.33626,-1.33627 -2.67253,2.67253 -2.67253,-2.67253 -2.67253,2.67253 -2.67253,-2.67253 -2.67253,2.67253 -4.00879,-4.00879 -1.33627,-1.33627 -2.67253,2.67253 -2.67253,-2.67253 -2.67253,2.67253 -2.67253,-2.67253 -2.67253,2.67253 -4.00879,-4.00879 -1.33627,-1.33627 -2.67252,2.67253 -2.67253,-2.67253 -2.67253,2.67253 -2.67253,-2.67253 -4.0088,4.0088 -1.33626,1.33626 -2.67253,-2.67253 -2.67253,2.67253 -2.67253,-2.67253 -2.67253,2.67253 -2.67253,-2.67253 -4.00879,4.0088 -1.33627,1.33626 -2.67253,-2.67253 -2.67253,2.67253 -2.67253,-2.67253 -2.67253,2.67253 -2.67253,-2.67253 -4.00879,4.0088 -1.33627,1.33626 -2.672526,-2.67253 -2.67253,2.67253 -2.672529,-2.67253 -2.67253,2.67253 -2.672529,-2.67253 -4.008795,4.0088 -1.336264,1.33626 -2.67253,-2.67253 -2.67253,2.67253 -2.672529,-2.67253 -2.67253,2.67253 -2.672529,-2.67253 -4.008795,4.00879 -1.336264,1.33627 -2.67253,-2.67253 -2.67253,2.67253 -2.672529,-2.67253 -2.67253,2.67253 -2.672529,-2.67253 -4.008795,4.00879 -1.336264,1.33627 -2.67253,-2.67253 -2.672529,2.67253 -2.67253,-2.67253 -2.67253,2.67253 -2.672529,-2.67253 -4.008795,4.00879 -1.336264,1.33627 -3.176014,-3.17602 -5.433931,1.61656 -3.187812,0.94835 h 4.914981 11.338582 11.338583 11.338583 11.338582 11.338583 11.338583 11.338582 11.338582 11.33858 11.33859 11.33858 11.33858 11.33858 11.33859 11.33858 11.33858 11.33859 11.33858 11.33858 11.33858 11.33859 11.33858 11.33858 6.80486 l -3.17615,-0.94488 H 277.79528 266.45669 255.11811 243.77953 232.44094 221.10236 209.76378 198.4252 187.08661 175.74803 164.40945 153.07087 141.73228 130.3937 119.05512 107.71654 96.377953 85.03937 73.700787 62.362205 51.023622 39.685039 28.346457 18.103687 l 3.176147,-0.94488 h 4.231977 11.338583 11.338582 11.338583 11.338583 11.338582 11.338583 11.338583 11.33858 11.33859 11.33858 11.33858 11.33858 11.33859 11.33858 11.33858 11.33858 11.33859 11.33858 11.33858 11.33858 11.33859 11.33858 6.12185 l -3.17615,-0.94488 H 272.12598 260.7874 249.44882 238.11024 226.77165 215.43307 204.09449 192.75591 181.41732 170.07874 158.74016 147.40157 136.06299 124.72441 113.38583 102.04724 90.708661 79.370079 68.031496 56.692913 45.354331 34.015748 24.455982 l 3.176147,-0.94488 h 3.548973 11.338583 11.338583 11.338582 11.338583 11.338583 11.338582 11.338582 11.33858 11.33859 11.33858 11.33858 11.33858 11.33859 11.33858 11.33858 11.33859 11.33858 11.33858 11.33858 11.33859 11.33858 5.43885 l -3.17615,-0.94489 H 266.45669 255.11811 243.77953 232.44094 221.10236 209.76378 198.4252 187.08661 175.74803 164.40945 153.07087 141.73228 130.3937 119.05512 107.71654 96.377953 85.03937 73.700787 62.362205 51.023622 39.685039 30.808277 l 3.176147,-0.94488 h 2.86597 11.338582 11.338583 11.338583 11.338582 11.338583 11.338583 11.33858 11.33859 11.33858 11.33858 11.33858 11.33859 11.33858 11.33858 11.33858 11.33859 11.33858 11.33858 11.33858 11.33859 4.75584 l -3.17615,-0.94488 H 260.7874 249.44882 238.11024 226.77165 215.43307 204.09449 192.75591 181.41732 170.07874 158.74016 147.40157 136.06299 124.72441 113.38583 102.04724 90.708661 79.370079 68.031496 56.692913 45.354331 37.160572 l 3.176147,-0.94488 h 2.182966 11.338583 11.338582 11.338583 11.338583 11.338582 11.338582 11.33858 11.33859 11.33858 11.33858 11.33858 11.33859 11.33858 11.33858 11.33859 11.33858 11.33858 11.33858 11.33859 4.07284 l -3.17615,-0.94488 H 255.11811 243.77953 232.44094 221.10236 209.76378 198.4252 187.08661 175.74803 164.40945 153.07087 141.73228 130.3937 119.05512 107.71654 96.377953 85.03937 73.700787 62.362205 51.023622 43.512866 l 3.176148,-0.94489 h 1.499962 11.338583 11.338583 11.338582 11.338583 11.338583 11.33858 11.33859 11.33858 11.33858 11.33858 11.33859 11.33858 11.33858 11.33858 11.33859 11.33858 11.33858 11.33858 3.38984 l -3.17615,-0.94488 H 249.44882 238.11024 226.77165 215.43307 204.09449 192.75591 181.41732 170.07874 158.74016 147.40157 136.06299 124.72441 113.38583 102.04724 90.708661 79.370079 68.031496 56.692913 49.865161 l 3.176148,-0.94488 h 0.816959 11.338582 11.338583 11.338583 11.338582 11.338582 11.33858 11.33859 11.33858 11.33858 11.33858 11.33859 11.33858 11.33858 11.33859 11.33858 11.33858 11.33858 2.70684 l -3.17615,-0.94488 H 243.77953 232.44094 221.10236 209.76378 198.4252 187.08661 175.74803 164.40945 153.07087 141.73228 130.3937 119.05512 107.71654 96.377953 85.03937 73.700787 62.362205 56.217456 l 3.176148,-0.94488 h 11.472538 11.338582 11.338583 11.338583 11.33858 11.33859 11.33858 11.33858 11.33858 11.33859 11.33858 11.33858 11.33858 11.33859 11.33858 11.33858 2.02383 l -3.17615,-0.94488 H 238.11024 226.77165 215.43307 204.09449 192.75591 181.41732 170.07874 158.74016 147.40157 136.06299 124.72441 113.38583 102.04724 90.708661 79.370079 68.031496 62.569751 l 3.176148,-0.94489 h 10.789534 11.338583 11.338582 11.338582 11.33858 11.33859 11.33858 11.33858 11.33858 11.33859 11.33858 11.33858 11.33859 11.33858 11.33858 1.34083 l -3.17615,-0.94488 H 232.44094 221.10236 209.76378 198.4252 187.08661 175.74803 164.40945 153.07087 141.73228 130.3937 119.05512 107.71654 96.377953 85.03937 73.700787 68.922046 l 3.176148,-0.94488 h 10.10653 11.338583 11.338583 11.33858 11.33859 11.33858 11.33858 11.33858 11.33859 11.33858 11.33858 11.33858 11.33859 11.33858 0.65782 l -3.17615,-0.94488 H 215.43307 204.09449 192.75591 181.41732 170.07874 158.74016 147.40157 136.06299 124.72441 113.38583 102.04724 90.708661 79.370079 75.274341 l 3.176148,-0.94488 h 9.423527 11.338582 11.338582 11.33858 11.33859 11.33858 11.33858 11.33858 11.33859 11.33858 11.33858 11.33859 11.3134 l -3.17615,-0.94489 H 209.76378 198.4252 187.08661 175.74803 164.40945 153.07087 141.73228 130.3937 119.05512 107.71654 96.377953 85.03937 81.626636 l 3.176148,-0.94488 h 8.740523 11.338583 11.33858 11.33859 11.33858 11.33858 11.33858 11.33859 11.33858 11.33858 11.33858 10.6304 l -3.17615,-0.94488 h -10.28889 -11.33858 -11.33859 -11.33858 -11.33858 -11.33859 -11.33858 -11.33858 -11.33858 -11.33859 -11.338579 -2.72973 l 5.433931,-1.61656 5.433932,-1.61655 5.433926,-1.61656 1.65912,-0.49358 3.63387,3.63387 2.67253,-2.67253 2.67253,2.67253 2.67253,-2.67253 2.67253,2.67253 2.67253,-2.67253 2.67253,2.67253 2.67253,-2.67253 2.67253,2.67253 2.67253,-2.67253 2.67253,2.67253 4.00879,-4.00879 4.0088,-4.0088 4.00879,-4.00879 4.0088,-4.00879 v -0.71466 l -4.00846,0.50645 h 1.91049 3.80036 l 3.17615,0.94489 h -4.14186 -7.92128 l -3.17615,0.94488 h 2.59349 11.33858 4.48337 l 3.17614,0.94488 h -4.82486 -11.33859 -8.60428 l -3.17615,0.94488 h 3.2765 11.33858 11.33858 5.16637 l 3.17615,0.94488 h -5.50787 -11.33858 -11.33859 -9.28728 l -3.17615,0.94489 h 3.9595 11.33858 11.33858 11.33858 5.84938 l 3.17614,0.94488 h -6.19087 -11.33858 -11.33859 -11.33858 -9.97029 l -3.17615,0.94488 h 4.64251 11.33858 11.33858 11.33858 11.33859 6.53237 l 3.17615,0.94488 h -6.87388 -11.33858 -11.33858 -11.33859 -11.33858 -10.65329 l -3.17615,0.94488 h 5.3255 11.33859 11.33858 11.33858 11.33858 11.33859 7.21538 l 3.17614,0.94489 h -7.55688 -11.33858 -11.33858 -11.33859 -11.33858 -11.33858 -11.3363 l -3.17615,0.94488 h 6.00851 11.33859 11.33858 11.33858 11.33858 11.33859 11.33858 7.89838 l 3.17615,0.94488 h -8.23989 -11.33858 -11.33858 -11.33858 -11.33859 -11.33858 -11.33858 -11.33858 -0.68072 l -3.17615,0.94488 h 6.69151 11.33858 11.33859 11.33858 11.33858 11.33858 11.33859 11.33858 8.58139 l 3.17614,0.94488 h -8.92288 -11.33859 -11.33858 -11.33858 -11.33859 -11.33858 -11.33858 -11.33858 -11.33859 -1.36372 l -3.176146,0.94488 h 7.374516 11.33858 11.33859 11.33858 11.33858 11.33858 11.33859 11.33858 11.33858 9.26439 l 3.17615,0.94489 H 198.4252 187.08661 175.74803 164.40945 153.07087 141.73228 130.3937 119.05512 107.71654 96.377953 94.331226 l -3.176147,0.94488 h 8.057519 11.338582 11.33858 11.33859 11.33858 11.33858 11.33858 11.33859 11.33858 11.33858 9.9474 -2.83465 -2.83464 2.83464 2.83465"
         inkscape:connector-curvature="0" />
    </g>
    <g
       inkscape:label="color block 3"
       id="__color_block_2__">
      <path
         id="path918"
         transform="scale(0.264583)"
         style="fill:none;stroke:#000000;stroke-width:0.40000001"
         embroider_manual_stitch="true"
         d="m 211.12984,168.36936 v -0.65168 0.65168 -0.65168 0.65168 -0.65168 l -4.76819,-1.41847 h -2.26716 -7.10341 l -3.1762,-0.94488 h 7.44496 1.92559 l -3.17623,-0.94488 h -1.584 -7.78651 l -3.17619,-0.94488 h 8.12805 1.24243 l -3.17623,-0.94488 h -0.90084 -8.46961 l -3.17619,-0.94489 h 8.81115 0.55927 l -3.17622,-0.94488 h -9.37039 l -3.1762,-0.94488 h 9.37036 l -3.17622,-0.94488 h -9.37033 l -3.17619,-0.94488 h 9.37029 l -3.17622,-0.94489 h -9.37027 l -3.17619,-0.94488 h 9.37023 l -3.17622,-0.94488 h -9.3702 l -3.17619,-0.94488 h 9.37017 l -5.43395,-1.61652 -3.4619,-1.21813 5.43394,-1.61652 0.91851,-0.27324 h -9.34517 l 3.17613,-0.94488 h 5.2165 4.12877 l 3.17622,-0.94489 h -9.34536 l 3.17612,-0.94488 h 4.53354 4.81193 l 3.17623,-0.94488 h -9.34557 l 3.17612,-0.94488 h 3.85059 5.49509 l 3.17622,-0.94488 h -9.34577 l 3.17613,-0.94488 h 3.16762 6.17825 l 3.17623,-0.94489 h -0.85055 -8.49543 l 3.17613,-0.94488 h 2.48466 6.86141 l 3.17623,-0.94488 h -1.5337 -7.81247 l 3.17612,-0.94488 h 1.8017 7.54458 l 3.17622,-0.94488 h -2.21686 -7.12951 l 3.17612,-0.94489 h 1.11874 8.22774 l 3.17623,-0.94488 h -2.90003 -6.44655 l 3.17613,-0.94488 h 0.43577 8.91091 l 3.17622,-0.94488 h -3.58319 -5.76359 l 3.17613,-0.94488 h 9.34688 l 3.17623,-0.94489 h -4.26636 -5.08063 l 3.17613,-0.94488 h 9.34708 l 3.17623,-0.94488 h -4.94952 -4.39766 l 3.17612,-0.94488 h 9.34729 l 3.17622,-0.94488 h -5.63268 -3.7147 l 3.17613,-0.94488 h 9.04251 l 3.4812,-0.94489 h -6.31585 -3.03174 l 3.17613,-0.94488 h 8.35955 0.98814 l 3.17622,-0.94488 h -6.999 -2.34879 l 3.17613,-0.94488 h 7.67659 1.6713 l 3.17623,-0.94488 h -7.68217 -1.66582 l 3.17612,-0.94489 h 6.99363 2.35446 l 3.17623,-0.94488 h -8.36533 -0.98286 L 251.64208,120 h 6.31068 3.03762 l 3.17622,-0.94488 h -9.04849 l 2.87623,-0.94488 h 5.62771 3.72078 l 3.17623,-0.94489 h -9.3486 l 3.17613,-0.94488 h 4.94475 4.40394 l 3.17623,-0.94488 h -9.34879 l 3.17612,-0.94488 h 4.26179 5.08711 l 3.17623,-0.94488 h -9.349 l 3.17612,-0.94489 h 3.57883 5.77027 l 1.87109,-0.55662 -2.31062,-2.31061 -2.67253,2.67253 -4.10721,-3.77118 h -5.66929 -5.6693 -5.66929 -5.66929 -5.66929 -5.66929 -5.66929 -5.66929 -5.6693 -5.66929 -5.66929 -5.66929 -5.66929 -5.66929 -5.66929 -5.66929 -5.6693 -5.66929 -5.66929 -5.66929 -5.66929 -5.66929 -5.66929 -5.6693 -5.66929 -5.66929 -5.66929 -5.66929 -5.66929 -5.66929 -5.66929 -5.669296 -5.669291 -5.669292 -5.669291 -5.669291 -5.669292 -5.669291 -5.669291 -5.669292 -5.669291 -5.669291 -5.669292 -5.669291 -5.669291 -5.669292 -5.669291 -5.6692915 l -3.5448163,0.26107 4.9938208,-0.0747 h 11.338583 11.338582 11.338583 11.338583 11.338582 11.338583 11.338583 11.338582 11.338582 11.33858 11.33859 11.33858 11.33858 11.33858 11.33859 11.33858 11.33858 11.33859 11.33858 11.33858 11.33858 11.33859 11.33858 11.33858 11.33858 7.1366 l -3.17623,0.94488 H 294.80315 283.46457 272.12598 260.7874 249.44882 238.11024 226.77165 215.43307 204.09449 192.75591 181.41732 170.07874 158.74016 147.40157 136.06299 124.72441 113.38583 102.04724 90.708661 79.370079 68.031496 56.692913 45.354331 34.015748 22.677165 11.338583 6.4350601 l 3.1760634,0.94488 h 4.5621045 11.338583 11.338583 11.338582 11.338583 11.338583 11.338582 11.338583 11.338583 11.33858 11.33859 11.33858 11.33858 11.33858 11.33859 11.33858 11.33858 11.33858 11.33859 11.33858 11.33858 11.33858 11.33859 11.33858 11.33858 6.45344 l -3.17623,0.94488 h -0.44256 -8.90664 l 0.38838,-0.11554 -5.66929,-0.24063 h -5.66929 -5.66929 -5.66929 -5.66929 -5.66929 -5.66929 -5.6693 -5.66929 -5.66929 -5.66929 -5.66929 -5.66929 -5.66929 -5.6693 -5.66929 -5.66929 -5.66929 -5.66929 -5.66929 -5.66929 -5.66929 -5.6693 -5.66929 -5.66929 -5.66929 -5.66929 -5.66929 -5.66929 -5.6693 -5.66929 -5.669288 -5.669292 -5.669291 -5.669291 -5.669292 -5.669291 -5.669291 -5.669292 -5.669291 -5.669291 -5.669292 -5.669291 -5.669291 -5.669292 -4.117257 l 0.756568,0.35617 h -5.128931 -4.220687 l 3.176063,0.94488 h 3.87927 5.470231 l 3.175946,0.94489 h -5.811532 -3.537851 l 3.176063,0.94488 h 3.196434 6.152833 l 3.175946,0.94488 h -6.494133 -2.855016 l 3.176063,0.94488 h 2.513598 6.835435 l 3.175946,0.94488 h -7.176735 -2.17218 l 3.176063,0.94489 h 1.830763 7.518035 l 3.175947,0.94488 H 39.685039 38.195695 L 41.371758,120 h 1.147927 8.200637 l 3.175947,0.94488 h -8.541938 -0.80651 l 3.176064,0.94488 h 0.465091 8.883239 l 3.175947,0.94489 h -9.22454 l 3.05239,0.94488 h 9.348096 l 3.175946,0.94488 h -9.347979 l 3.176064,0.94488 h 9.347862 l 3.175946,0.94488 h -9.347745 l 3.176064,0.94489 h 9.347628 l 3.175946,0.94488 h -9.347511 l 3.176063,0.94488 h 9.072332 l 3.451009,0.94488 H 85.03937 76.308456 l 3.176063,0.94488 h 8.389497 0.957663 l 3.175947,0.94488 h -1.298965 -8.048078 l 3.176063,0.94489 h 7.706661 1.640265 l 3.175946,0.94488 H 96.377953 89.01271 l 3.176063,0.94488 h 7.023825 2.322862 l 3.17595,0.94488 h -2.66417 -6.682403 l 3.176063,0.94488 h 6.34099 3.00547 l 3.17594,0.94489 h -3.34676 -5.99958 l 3.17607,0.94488 h 5.65815 3.68807 l 3.17595,0.94488 h -4.02937 -5.31674 l 3.17606,0.94488 h 4.97532 4.37067 l 3.17595,0.94488 h -4.71197 -4.6339 l 3.17606,0.94489 h 4.29248 5.05328 l 3.17594,0.94488 h -5.39457 -3.95107 l 3.17607,0.94488 h 3.60965 5.73587 l 3.17595,0.94488 h -6.07718 -3.26823 l 3.17606,0.94488 h 2.92682 6.41847 l 3.17595,0.94488 h -6.75978 -2.58539 l 3.17606,0.94489 h 2.24398 7.10107 l 3.17595,0.94488 h -7.44238 -1.90256 l 3.17607,0.94488 h 1.56114 11.33858 3.4456 l -3.17622,0.94488 h -8.77332 -1.21972 l -2.54327,0.94488 h 6.59764 8.48207 l 3.17622,0.94489 h -8.82364 -0.5465 -2.69194 -8.10015 -1.26976 l -3.17606,0.94488 h 7.28047 2.08948 l -3.17601,0.94488 h -7.41741 -1.95259 l -3.17606,0.94488 h 7.9633 1.40675 l -3.17602,0.94488 h -6.73467 -2.63542 l -3.17606,0.94489 h 8.64613 0.72401 l -3.17601,0.94488 h -6.05194 -3.31825 l -3.17606,0.94488 h 9.32896 l -3.13474,0.94488 h -5.3692 -4.00108 l -3.17607,0.94488 h 9.37033 l -3.17601,0.94489 h -4.68646 -4.68392 l -3.17606,0.94488 h 9.37043 l -3.17602,0.94488 h -4.00372 -5.36675 l -3.176058,0.94488 h 9.370518 l -3.17601,0.94488 h -3.321 -6.049568 l -3.176061,0.94488 h 0.721696 8.648913 l -3.17601,0.94489 H 96.377953 89.64555 l -3.17606,0.94488 h 1.404526 7.96618 l -3.176013,0.94488 h -1.955522 -7.415232 l -3.176061,0.94488 h 2.087356 7.283445 l -3.176013,0.94488 H 85.03937 76.941308 l -3.176061,0.94489 h 2.770186 6.600709 l -3.176013,0.94488 h -0.59005 -8.780892 l -3.176061,0.94488 h 3.453016 5.917973 l -3.176013,0.94488 h -9.371037 l -3.17606,0.94488 h 4.135845 5.235238 l -3.176013,0.94489 h -9.371131 l -3.176061,0.94488 h 4.818676 4.552502 l -3.176013,0.94488 h -9.371225 l -3.176061,0.94488 h 5.501506 3.869766 l -3.176013,0.94488 h -9.19769 l -3.34969,0.94488 h 6.184335 3.187031 l -3.176013,0.94489 H 39.685039 38.82858 l -3.176061,0.94488 h 6.867166 2.504295 l -3.176013,0.94488 h -7.832219 -1.539289 l -3.176061,0.94488 h 7.549996 1.821559 l -3.176013,0.94488 h -7.149483 -2.222119 l -3.176061,0.94489 h 8.232825 1.138824 l -3.176013,0.94488 h -6.466748 -2.904949 l -3.17606,0.94488 h 8.915655 0.456088 l -3.176014,0.94488 h -5.784011 -3.587779 l -5.4339191,1.6166 -4.0942628,1.21805 h 10.2813149 11.338583 11.338583 11.338582 11.338583 11.338583 11.338582 11.338583 11.338583 11.33858 11.33859 11.33858 11.33858 11.33858 11.33859 11.33858 11.33858 11.33858 11.33859 11.33858 11.33858 11.33858 11.33859 11.33858 11.33858 11.33859 0.83435 l -3.17622,-0.94488 H 294.80315 283.46457 272.12598 260.7874 249.44882 238.11024 226.77165 215.43307 204.09449 192.75591 181.41732 170.07874 158.74016 147.40157 136.06299 124.72441 113.38583 102.04724 90.708661 79.370079 68.031496 56.692913 45.354331 34.015748 22.677165 11.338583 7.0679737 l 3.1760603,-0.94489 h 9.598486 11.338582 11.338583 11.338583 11.338582 11.338583 11.338583 11.338582 11.338582 11.33858 11.33859 11.33858 11.33858 11.33858 11.33859 11.33858 11.33858 11.33859 11.33858 11.33858 11.33858 11.33859 11.33858 11.33858 11.33858 l -3.02502,-0.94488 h -9.37138 l -3.17619,-0.94488 h 9.37135 l -3.17623,-0.94488 h -9.37131 l -3.1762,-0.94488 h 9.37129 l -3.17623,-0.94489 h -9.37125 l -3.17619,-0.94488 h 9.37122 l -3.17623,-0.94488 h -9.09873 l -3.44865,-0.94488 h 0.61401 8.75715 l -3.17622,-0.94488 h -8.41558 -0.95555 l -3.1762,-0.94489 h 1.2971 8.074 l -3.17622,-0.94488 h -7.73242 -1.63865 l -3.17619,-0.94488 h 1.98019 7.39084 l -3.17622,-0.94488 h -7.04926 -2.32175 l -3.17619,-0.94488 h 2.66329 6.70768 l -3.17622,-0.94488 h -6.3661 -3.00484 l -3.1762,-0.94489 h 3.34639 6.02453 l -3.17623,-0.94488 h -5.68295 -3.68793 l -3.17619,-0.94488 h 4.02948 5.34137 l -3.17623,-0.94488 h -4.99979 -4.37103 l -3.17619,-0.94488 h 4.71258 4.65821 L 225.419,171.9685 h -4.31664 -5.05412 l -3.1762,-0.94488 h 5.39568 3.97505 l -3.17622,-0.94488 h -3.63348 -5.73722 l -5.43394,-1.61654 -4.09464,-1.21811 h 6.76186 2.60874 l 5.43395,1.61653 0.9185,0.27324 h -3.29189 -6.07877 l -3.1762,-0.94488 h 6.42032 2.95032 l -1.082,-0.32188 1.082,0.32188 -1.082,-0.32188 1.082,0.32188 -1.082,-0.32188"
         inkscape:connector-curvature="0" />
    </g>
  </g>
</svg>
