<?xml version="1.0" encoding="UTF-8" standalone="no"?>
<!-- Created with Inkscape (http://www.inkscape.org/) -->

<svg
   xmlns:dc="http://purl.org/dc/elements/1.1/"
   xmlns:cc="http://creativecommons.org/ns#"
   xmlns:rdf="http://www.w3.org/1999/02/22-rdf-syntax-ns#"
   xmlns:svg="http://www.w3.org/2000/svg"
   xmlns="http://www.w3.org/2000/svg"
   xmlns:sodipodi="http://sodipodi.sourceforge.net/DTD/sodipodi-0.dtd"
   xmlns:inkscape="http://www.inkscape.org/namespaces/inkscape"
   version="1.1"
   id="svg2"
   xml:space="preserve"
   width="336.37866"
   height="222.992"
   viewBox="0 0 336.37866 222.992"
   sodipodi:docname="visitenkarte_vorne.svg"
   inkscape:version="0.92.4 (5da689c313, 2019-01-14)"><metadata
     id="metadata8"><rdf:RDF><cc:Work
         rdf:about=""><dc:format>image/svg+xml</dc:format><dc:type
           rdf:resource="http://purl.org/dc/dcmitype/StillImage" /><dc:title></dc:title></cc:Work></rdf:RDF></metadata><defs
     id="defs6"><clipPath
       clipPathUnits="userSpaceOnUse"
       id="clipPath24"><path
         d="M 0,167.244 H 252.284 V 0 H 0 Z"
         id="path22"
         inkscape:connector-curvature="0" /></clipPath><clipPath
       clipPathUnits="userSpaceOnUse"
       id="clipPath142"><path
         d="M 0,167.244 H 252.284 V 0 H 0 Z"
         id="path140"
         inkscape:connector-curvature="0" /></clipPath></defs><sodipodi:namedview
     pagecolor="#ffffff"
     bordercolor="#666666"
     borderopacity="1"
     objecttolerance="10"
     gridtolerance="10"
     guidetolerance="10"
     inkscape:pageopacity="0"
     inkscape:pageshadow="2"
     inkscape:window-width="1600"
     inkscape:window-height="871"
     id="namedview4"
     showgrid="false"
     inkscape:snap-bbox="true"
     inkscape:bbox-paths="true"
     inkscape:bbox-nodes="true"
     inkscape:snap-bbox-edge-midpoints="true"
     inkscape:snap-bbox-midpoints="true"
     inkscape:zoom="2.1166678"
     inkscape:cx="159.81066"
     inkscape:cy="101.90396"
     inkscape:window-x="0"
     inkscape:window-y="0"
     inkscape:window-maximized="1"
     inkscape:current-layer="layer6" /><g
     id="g10"
     inkscape:groupmode="layer"
     inkscape:label="85x55mm_landscape_2s"
     transform="matrix(1.3333333,0,0,-1.3333333,0,222.992)"
     style="display:none"
     sodipodi:insensitive="true"><path
       d="M 0,0 H 252.283 V 167.243 H 0 Z"
       style="fill:#f47216;fill-opacity:1;fill-rule:nonzero;stroke:none"
       id="path12"
       inkscape:connector-curvature="0" /><path
       d="M 246.615,5.669 H 5.67 v 155.905 h 240.945 z"
       style="fill:#969e8d;fill-opacity:1;fill-rule:nonzero;stroke:none"
       id="path14"
       inkscape:connector-curvature="0" /><path
       d="M 238.11,14.173 H 14.173 V 153.07 H 238.11 Z"
       style="fill:#ffffff;fill-opacity:1;fill-rule:nonzero;stroke:none"
       id="path16"
       inkscape:connector-curvature="0" /><g
       id="g18"><g
         id="g20"
         clip-path="url(#clipPath24)"><g
           id="g26"
           transform="translate(121.604,85.3584)"><path
             d="m 0,0 v 0.388 l 4.451,6.817 c 0.932,1.429 1.397,2.642 1.397,3.637 0,1.312 -0.741,1.969 -2.221,1.969 -0.523,0 -1.015,-0.137 -1.474,-0.413 C 1.694,12.124 1.361,11.776 1.154,11.356 l -1.251,1.028 c 0.22,0.634 0.652,1.137 1.295,1.512 0.643,0.375 1.42,0.563 2.332,0.563 1.365,0 2.431,-0.314 3.2,-0.945 0.77,-0.63 1.155,-1.521 1.155,-2.672 0,-1.067 -0.511,-2.411 -1.532,-4.034 L 3.162,1.745 H 8.729 V 0 Z"
             style="fill:#969e8d;fill-opacity:1;fill-rule:nonzero;stroke:none"
             id="path28"
             inkscape:connector-curvature="0" /></g><g
           id="g30"
           transform="translate(126.1421,105.2529)"><path
             d="m 0,0 c -6.892,0 -12.498,-5.605 -12.498,-12.497 0,-6.892 5.606,-12.497 12.498,-12.497 6.891,0 12.497,5.605 12.497,12.497 C 12.497,-5.605 6.891,0 0,0 m 0,-25.821 c -7.347,0 -13.324,5.977 -13.324,13.324 0,7.347 5.977,13.324 13.324,13.324 7.347,0 13.323,-5.977 13.323,-13.324 0,-7.347 -5.976,-13.324 -13.323,-13.324"
             style="fill:#969e8d;fill-opacity:1;fill-rule:nonzero;stroke:none"
             id="path32"
             inkscape:connector-curvature="0" /></g><g
           id="g34"
           transform="translate(113.061,24.9131)"><path
             d="m 0,0 c -0.01,-0.649 0.489,-1 1.239,-1.199 0.56,0.189 0.99,0.589 0.99,1.178 0,0.52 -0.31,1.06 -1.1,1.06 C 0.399,1.039 0,0.56 0,0 m 2.419,-3.248 c 0,0.779 -0.55,1.169 -1.43,1.419 -0.76,-0.22 -1.169,-0.73 -1.169,-1.35 -0.03,-0.649 0.47,-1.229 1.299,-1.229 0.79,0 1.3,0.49 1.3,1.16 M 0.2,-1.52 c -0.729,0.34 -1.04,0.9 -1.04,1.459 0,1.031 0.87,1.73 2.02,1.73 1.258,0 1.898,-0.779 1.898,-1.6 0,-0.548 -0.279,-1.149 -1.079,-1.518 v -0.03 c 0.81,-0.32 1.31,-0.9 1.31,-1.679 0,-1.14 -0.97,-1.89 -2.209,-1.89 -1.36,0 -2.179,0.8 -2.179,1.749 0,0.82 0.489,1.409 1.289,1.749 z"
             style="fill:#2f3127;fill-opacity:1;fill-rule:nonzero;stroke:none"
             id="path36"
             inkscape:connector-curvature="0" /></g><g
           id="g38"
           transform="translate(121.0688,25.7324)"><path
             d="m 0,0 h -2.479 l -0.249,-1.669 c 0.15,0.02 0.29,0.03 0.53,0.03 0.51,0 0.999,-0.1 1.399,-0.35 0.51,-0.28 0.93,-0.85 0.93,-1.659 0,-1.269 -1.01,-2.219 -2.419,-2.219 -0.71,0 -1.3,0.2 -1.619,0.4 l 0.219,0.67 c 0.27,-0.16 0.8,-0.36 1.4,-0.36 0.819,0 1.539,0.54 1.529,1.409 0,0.84 -0.57,1.43 -1.859,1.43 -0.38,0 -0.67,-0.031 -0.909,-0.061 l 0.42,3.118 H 0 Z"
             style="fill:#2f3127;fill-opacity:1;fill-rule:nonzero;stroke:none"
             id="path40"
             inkscape:connector-curvature="0" /></g><g
           id="g42"
           transform="translate(124.7212,23.5039)"><path
             d="M 0,0 C 0,0.51 -0.02,0.909 -0.04,1.309 H 0.729 L 0.77,0.52 H 0.8 c 0.269,0.459 0.72,0.889 1.529,0.889 0.65,0 1.15,-0.4 1.359,-0.97 h 0.02 c 0.15,0.281 0.35,0.48 0.55,0.63 0.29,0.22 0.599,0.34 1.059,0.34 0.65,0 1.599,-0.42 1.599,-2.098 V -3.528 H 6.057 V -0.8 c 0,0.94 -0.35,1.489 -1.049,1.489 -0.51,0 -0.89,-0.37 -1.05,-0.79 C 3.918,-0.23 3.888,-0.38 3.888,-0.54 v -2.988 h -0.86 v 2.898 c 0,0.77 -0.34,1.319 -1.009,1.319 C 1.479,0.689 1.069,0.25 0.93,-0.19 0.88,-0.311 0.859,-0.47 0.859,-0.62 V -3.528 H 0 Z"
             style="fill:#2f3127;fill-opacity:1;fill-rule:nonzero;stroke:none"
             id="path44"
             inkscape:connector-curvature="0" /></g><g
           id="g46"
           transform="translate(133.061,23.5039)"><path
             d="M 0,0 C 0,0.51 -0.02,0.909 -0.04,1.309 H 0.729 L 0.77,0.52 H 0.8 c 0.269,0.459 0.72,0.889 1.529,0.889 0.65,0 1.15,-0.4 1.359,-0.97 h 0.02 c 0.15,0.281 0.35,0.48 0.55,0.63 0.29,0.22 0.599,0.34 1.059,0.34 0.65,0 1.599,-0.42 1.599,-2.098 V -3.528 H 6.057 V -0.8 c 0,0.94 -0.35,1.489 -1.049,1.489 -0.51,0 -0.89,-0.37 -1.05,-0.79 C 3.918,-0.23 3.888,-0.38 3.888,-0.54 v -2.988 h -0.86 v 2.898 c 0,0.77 -0.34,1.319 -1.009,1.319 C 1.479,0.689 1.069,0.25 0.93,-0.19 0.88,-0.311 0.859,-0.47 0.859,-0.62 V -3.528 H 0 Z"
             style="fill:#2f3127;fill-opacity:1;fill-rule:nonzero;stroke:none"
             id="path48"
             inkscape:connector-curvature="0" /></g><path
           d="m 246.615,12.105 h -1 v 10.001 h 1 z"
           style="fill:#2f3127;fill-opacity:1;fill-rule:nonzero;stroke:none"
           id="path50"
           inkscape:connector-curvature="0" /><path
           d="m 6.669,12.105 h -1 v 10.001 h 1 z"
           style="fill:#2f3127;fill-opacity:1;fill-rule:nonzero;stroke:none"
           id="path52"
           inkscape:connector-curvature="0" /><g
           id="g54"
           transform="translate(246.6147,17.1055)"><path
             d="M 0,0 H -240.945"
             style="fill:none;stroke:#2f3127;stroke-width:0.73400003;stroke-linecap:butt;stroke-linejoin:miter;stroke-miterlimit:4;stroke-dasharray:none;stroke-opacity:1"
             id="path56"
             inkscape:connector-curvature="0" /></g><g
           id="g58"
           transform="translate(113.061,39.0859)"><path
             d="m 0,0 c -0.01,-0.649 0.489,-1 1.239,-1.199 0.56,0.189 0.99,0.589 0.99,1.178 0,0.52 -0.31,1.06 -1.1,1.06 C 0.399,1.039 0,0.56 0,0 m 2.419,-3.248 c 0,0.779 -0.55,1.169 -1.43,1.419 -0.76,-0.22 -1.169,-0.73 -1.169,-1.35 -0.03,-0.649 0.47,-1.229 1.299,-1.229 0.79,0 1.3,0.49 1.3,1.16 M 0.2,-1.52 c -0.729,0.34 -1.04,0.9 -1.04,1.459 0,1.031 0.87,1.73 2.02,1.73 1.258,0 1.898,-0.779 1.898,-1.6 0,-0.548 -0.279,-1.149 -1.079,-1.518 v -0.03 c 0.81,-0.32 1.31,-0.9 1.31,-1.679 0,-1.14 -0.97,-1.89 -2.209,-1.89 -1.36,0 -2.179,0.8 -2.179,1.749 0,0.82 0.489,1.409 1.289,1.749 z"
             style="fill:#2f3127;fill-opacity:1;fill-rule:nonzero;stroke:none"
             id="path60"
             inkscape:connector-curvature="0" /></g><g
           id="g62"
           transform="translate(118.021,38.4961)"><path
             d="m 0,0 c 0,-0.81 0.489,-1.379 1.249,-1.379 0.59,0 1.05,0.289 1.279,0.68 0.05,0.09 0.08,0.179 0.08,0.329 0,1.109 -0.409,1.959 -1.338,1.959 C 0.529,1.589 0,0.93 0,0 m -0.32,-3.728 c 0.19,-0.02 0.41,0 0.71,0.03 0.509,0.07 0.989,0.27 1.359,0.63 0.43,0.389 0.739,0.96 0.859,1.718 H 2.578 C 2.219,-1.789 1.699,-2.039 1.039,-2.039 c -1.159,0 -1.908,0.88 -1.908,1.989 0,1.23 0.889,2.309 2.219,2.309 1.329,0 2.148,-1.07 2.148,-2.749 0,-1.419 -0.479,-2.418 -1.119,-3.038 -0.5,-0.49 -1.19,-0.789 -1.89,-0.869 -0.319,-0.05 -0.599,-0.061 -0.809,-0.05 z"
             style="fill:#2f3127;fill-opacity:1;fill-rule:nonzero;stroke:none"
             id="path64"
             inkscape:connector-curvature="0" /></g><g
           id="g66"
           transform="translate(124.7212,37.6768)"><path
             d="M 0,0 C 0,0.51 -0.02,0.909 -0.04,1.309 H 0.729 L 0.77,0.52 H 0.8 c 0.269,0.459 0.72,0.889 1.529,0.889 0.65,0 1.15,-0.4 1.359,-0.97 h 0.02 c 0.15,0.281 0.35,0.48 0.55,0.63 0.29,0.22 0.599,0.34 1.059,0.34 0.65,0 1.599,-0.42 1.599,-2.098 V -3.528 H 6.057 V -0.8 c 0,0.94 -0.35,1.489 -1.049,1.489 -0.51,0 -0.89,-0.37 -1.05,-0.79 C 3.918,-0.23 3.888,-0.38 3.888,-0.54 v -2.988 h -0.86 v 2.898 c 0,0.77 -0.34,1.319 -1.009,1.319 C 1.479,0.689 1.069,0.25 0.93,-0.19 0.88,-0.311 0.859,-0.47 0.859,-0.62 V -3.528 H 0 Z"
             style="fill:#2f3127;fill-opacity:1;fill-rule:nonzero;stroke:none"
             id="path68"
             inkscape:connector-curvature="0" /></g><g
           id="g70"
           transform="translate(133.061,37.6768)"><path
             d="M 0,0 C 0,0.51 -0.02,0.909 -0.04,1.309 H 0.729 L 0.77,0.52 H 0.8 c 0.269,0.459 0.72,0.889 1.529,0.889 0.65,0 1.15,-0.4 1.359,-0.97 h 0.02 c 0.15,0.281 0.35,0.48 0.55,0.63 0.29,0.22 0.599,0.34 1.059,0.34 0.65,0 1.599,-0.42 1.599,-2.098 V -3.528 H 6.057 V -0.8 c 0,0.94 -0.35,1.489 -1.049,1.489 -0.51,0 -0.89,-0.37 -1.05,-0.79 C 3.918,-0.23 3.888,-0.38 3.888,-0.54 v -2.988 h -0.86 v 2.898 c 0,0.77 -0.34,1.319 -1.009,1.319 C 1.479,0.689 1.069,0.25 0.93,-0.19 0.88,-0.311 0.859,-0.47 0.859,-0.62 V -3.528 H 0 Z"
             style="fill:#2f3127;fill-opacity:1;fill-rule:nonzero;stroke:none"
             id="path72"
             inkscape:connector-curvature="0" /></g><path
           d="m 252.284,26.278 h -1 v 10.001 h 1 z"
           style="fill:#2f3127;fill-opacity:1;fill-rule:nonzero;stroke:none"
           id="path74"
           inkscape:connector-curvature="0" /><path
           d="M 1,26.278 H 0 v 10.001 h 1 z"
           style="fill:#2f3127;fill-opacity:1;fill-rule:nonzero;stroke:none"
           id="path76"
           inkscape:connector-curvature="0" /><g
           id="g78"
           transform="translate(252.2837,31.2783)"><path
             d="M 0,0 H -252.284"
             style="fill:none;stroke:#2f3127;stroke-width:0.73400003;stroke-linecap:butt;stroke-linejoin:miter;stroke-miterlimit:4;stroke-dasharray:none;stroke-opacity:1"
             id="path80"
             inkscape:connector-curvature="0" /></g><g
           id="g82"
           transform="translate(226.5503,73.4189)"><path
             d="m 0,0 v -2.479 l 1.669,-0.25 c -0.02,0.151 -0.03,0.291 -0.03,0.531 0,0.51 0.1,0.999 0.35,1.399 0.28,0.51 0.85,0.93 1.659,0.93 1.269,0 2.219,-1.01 2.219,-2.419 0,-0.71 -0.2,-1.3 -0.4,-1.619 l -0.67,0.219 c 0.16,0.27 0.36,0.8 0.36,1.4 0,0.819 -0.54,1.539 -1.409,1.529 -0.84,0 -1.43,-0.57 -1.43,-1.859 0,-0.38 0.031,-0.67 0.061,-0.909 l -3.118,0.42 V 0 Z"
             style="fill:#2f3127;fill-opacity:1;fill-rule:nonzero;stroke:none"
             id="path84"
             inkscape:connector-curvature="0" /></g><g
           id="g86"
           transform="translate(226.5503,78.5488)"><path
             d="m 0,0 v -2.479 l 1.669,-0.249 c -0.02,0.15 -0.03,0.29 -0.03,0.53 0,0.51 0.1,0.999 0.35,1.399 0.28,0.51 0.85,0.93 1.659,0.93 1.269,0 2.219,-1.01 2.219,-2.419 0,-0.71 -0.2,-1.3 -0.4,-1.619 l -0.67,0.219 c 0.16,0.27 0.36,0.8 0.36,1.4 0,0.819 -0.54,1.539 -1.409,1.529 -0.84,0 -1.43,-0.57 -1.43,-1.859 0,-0.38 0.031,-0.67 0.061,-0.909 l -3.118,0.42 V 0 Z"
             style="fill:#2f3127;fill-opacity:1;fill-rule:nonzero;stroke:none"
             id="path88"
             inkscape:connector-curvature="0" /></g><g
           id="g90"
           transform="translate(228.7788,82.2012)"><path
             d="M 0,0 C -0.51,0 -0.909,-0.02 -1.309,-0.04 V 0.729 L -0.52,0.77 V 0.8 c -0.459,0.269 -0.889,0.72 -0.889,1.529 0,0.65 0.4,1.15 0.97,1.359 v 0.02 c -0.281,0.15 -0.48,0.35 -0.63,0.55 -0.22,0.29 -0.34,0.599 -0.34,1.059 0,0.65 0.42,1.599 2.098,1.599 H 3.528 V 6.057 H 0.8 c -0.94,0 -1.489,-0.35 -1.489,-1.049 0,-0.51 0.37,-0.89 0.79,-1.05 C 0.23,3.918 0.38,3.888 0.54,3.888 H 3.528 V 3.028 H 0.63 c -0.77,0 -1.319,-0.34 -1.319,-1.009 0,-0.54 0.439,-0.95 0.879,-1.089 C 0.311,0.88 0.47,0.859 0.62,0.859 H 3.528 V 0 Z"
             style="fill:#2f3127;fill-opacity:1;fill-rule:nonzero;stroke:none"
             id="path92"
             inkscape:connector-curvature="0" /></g><g
           id="g94"
           transform="translate(228.7788,90.541)"><path
             d="M 0,0 C -0.51,0 -0.909,-0.02 -1.309,-0.04 V 0.729 L -0.52,0.77 V 0.8 c -0.459,0.269 -0.889,0.72 -0.889,1.529 0,0.65 0.4,1.15 0.97,1.359 v 0.02 c -0.281,0.15 -0.48,0.35 -0.63,0.55 -0.22,0.29 -0.34,0.599 -0.34,1.059 0,0.65 0.42,1.599 2.098,1.599 H 3.528 V 6.057 H 0.8 c -0.94,0 -1.489,-0.35 -1.489,-1.049 0,-0.51 0.37,-0.89 0.79,-1.05 C 0.23,3.918 0.38,3.888 0.54,3.888 H 3.528 V 3.028 H 0.63 c -0.77,0 -1.319,-0.34 -1.319,-1.009 0,-0.54 0.439,-0.95 0.879,-1.089 C 0.311,0.88 0.47,0.859 0.62,0.859 H 3.528 V 0 Z"
             style="fill:#2f3127;fill-opacity:1;fill-rule:nonzero;stroke:none"
             id="path96"
             inkscape:connector-curvature="0" /></g><path
           d="m 240.176,5.669 h -10 v 1 h 10 z"
           style="fill:#2f3127;fill-opacity:1;fill-rule:nonzero;stroke:none"
           id="path98"
           inkscape:connector-curvature="0" /><path
           d="m 240.176,160.574 h -10 v 1 h 10 z"
           style="fill:#2f3127;fill-opacity:1;fill-rule:nonzero;stroke:none"
           id="path100"
           inkscape:connector-curvature="0" /><g
           id="g102"
           transform="translate(235.1763,161.5742)"><path
             d="M 0,0 V -155.905"
             style="fill:none;stroke:#2f3127;stroke-width:0.73400003;stroke-linecap:butt;stroke-linejoin:miter;stroke-miterlimit:4;stroke-dasharray:none;stroke-opacity:1"
             id="path104"
             inkscape:connector-curvature="0" /></g><g
           id="g106"
           transform="translate(212.3774,73.4189)"><path
             d="m 0,0 v -2.479 l 1.669,-0.25 c -0.02,0.151 -0.03,0.291 -0.03,0.531 0,0.51 0.1,0.999 0.35,1.399 0.28,0.51 0.85,0.93 1.659,0.93 1.269,0 2.219,-1.01 2.219,-2.419 0,-0.71 -0.2,-1.3 -0.4,-1.619 l -0.67,0.219 c 0.16,0.27 0.36,0.8 0.36,1.4 0,0.819 -0.54,1.539 -1.409,1.529 -0.84,0 -1.43,-0.57 -1.43,-1.859 0,-0.38 0.031,-0.67 0.061,-0.909 l -3.118,0.42 V 0 Z"
             style="fill:#2f3127;fill-opacity:1;fill-rule:nonzero;stroke:none"
             id="path108"
             inkscape:connector-curvature="0" /></g><g
           id="g110"
           transform="translate(213.7866,75.501)"><path
             d="m 0,0 c 0.81,0 1.379,0.489 1.379,1.249 0,0.59 -0.289,1.05 -0.68,1.279 C 0.609,2.578 0.52,2.608 0.37,2.608 -0.739,2.608 -1.589,2.199 -1.589,1.27 -1.589,0.529 -0.93,0 0,0 m 3.728,-0.32 c 0.02,0.19 0,0.41 -0.03,0.71 C 3.628,0.899 3.428,1.379 3.068,1.749 2.679,2.179 2.108,2.488 1.35,2.608 V 2.578 C 1.789,2.219 2.039,1.699 2.039,1.039 c 0,-1.159 -0.88,-1.908 -1.989,-1.908 -1.23,0 -2.309,0.889 -2.309,2.219 0,1.329 1.07,2.148 2.749,2.148 1.419,0 2.418,-0.479 3.038,-1.119 0.49,-0.5 0.789,-1.19 0.869,-1.89 0.05,-0.319 0.061,-0.599 0.05,-0.809 z"
             style="fill:#2f3127;fill-opacity:1;fill-rule:nonzero;stroke:none"
             id="path112"
             inkscape:connector-curvature="0" /></g><g
           id="g114"
           transform="translate(214.606,82.2012)"><path
             d="M 0,0 C -0.51,0 -0.909,-0.02 -1.309,-0.04 V 0.729 L -0.52,0.77 V 0.8 c -0.459,0.269 -0.889,0.72 -0.889,1.529 0,0.65 0.4,1.15 0.97,1.359 v 0.02 c -0.281,0.15 -0.48,0.35 -0.63,0.55 -0.22,0.29 -0.34,0.599 -0.34,1.059 0,0.65 0.42,1.599 2.098,1.599 H 3.528 V 6.057 H 0.8 c -0.94,0 -1.489,-0.35 -1.489,-1.049 0,-0.51 0.37,-0.89 0.79,-1.05 C 0.23,3.918 0.38,3.888 0.54,3.888 H 3.528 V 3.028 H 0.63 c -0.77,0 -1.319,-0.34 -1.319,-1.009 0,-0.54 0.439,-0.95 0.879,-1.089 C 0.311,0.88 0.47,0.859 0.62,0.859 H 3.528 V 0 Z"
             style="fill:#2f3127;fill-opacity:1;fill-rule:nonzero;stroke:none"
             id="path116"
             inkscape:connector-curvature="0" /></g><g
           id="g118"
           transform="translate(214.606,90.541)"><path
             d="M 0,0 C -0.51,0 -0.909,-0.02 -1.309,-0.04 V 0.729 L -0.52,0.77 V 0.8 c -0.459,0.269 -0.889,0.72 -0.889,1.529 0,0.65 0.4,1.15 0.97,1.359 v 0.02 c -0.281,0.15 -0.48,0.35 -0.63,0.55 -0.22,0.29 -0.34,0.599 -0.34,1.059 0,0.65 0.42,1.599 2.098,1.599 H 3.528 V 6.057 H 0.8 c -0.94,0 -1.489,-0.35 -1.489,-1.049 0,-0.51 0.37,-0.89 0.79,-1.05 C 0.23,3.918 0.38,3.888 0.54,3.888 H 3.528 V 3.028 H 0.63 c -0.77,0 -1.319,-0.34 -1.319,-1.009 0,-0.54 0.439,-0.95 0.879,-1.089 C 0.311,0.88 0.47,0.859 0.62,0.859 H 3.528 V 0 Z"
             style="fill:#2f3127;fill-opacity:1;fill-rule:nonzero;stroke:none"
             id="path120"
             inkscape:connector-curvature="0" /></g><path
           d="m 226.003,-0.001 h -10 v 1 h 10 z"
           style="fill:#2f3127;fill-opacity:1;fill-rule:nonzero;stroke:none"
           id="path122"
           inkscape:connector-curvature="0" /><path
           d="m 226.003,166.244 h -10 v 1 h 10 z"
           style="fill:#2f3127;fill-opacity:1;fill-rule:nonzero;stroke:none"
           id="path124"
           inkscape:connector-curvature="0" /><g
           id="g126"
           transform="translate(221.0034,167.2437)"><path
             d="M 0,0 V -167.244"
             style="fill:none;stroke:#2f3127;stroke-width:0.73400003;stroke-linecap:butt;stroke-linejoin:miter;stroke-miterlimit:4;stroke-dasharray:none;stroke-opacity:1"
             id="path128"
             inkscape:connector-curvature="0" /></g></g></g><path
       d="M 0,0 H 252.283 V 167.243 H 0 Z"
       style="fill:#f47216;fill-opacity:1;fill-rule:nonzero;stroke:none"
       id="path130"
       inkscape:connector-curvature="0" /><path
       d="M 246.615,5.669 H 5.67 v 155.905 h 240.945 z"
       style="fill:#969e8d;fill-opacity:1;fill-rule:nonzero;stroke:none"
       id="path132"
       inkscape:connector-curvature="0" /><path
       d="M 238.11,14.173 H 14.173 V 153.07 H 238.11 Z"
       style="fill:#ffffff;fill-opacity:1;fill-rule:nonzero;stroke:none"
       id="path134"
       inkscape:connector-curvature="0" /><g
       id="g136"><g
         id="g138"
         clip-path="url(#clipPath142)"><g
           id="g144"
           transform="translate(125.7642,85.3584)"><path
             d="M 0,0 V 10.891 L -2.89,9.087 V 10.9 c 0.731,0.369 1.508,0.876 2.332,1.523 0.826,0.646 1.463,1.261 1.916,1.843 H 1.94 V 0 Z"
             style="fill:#969e8d;fill-opacity:1;fill-rule:nonzero;stroke:none"
             id="path146"
             inkscape:connector-curvature="0" /></g><g
           id="g148"
           transform="translate(126.1421,105.2529)"><path
             d="m 0,0 c -6.892,0 -12.498,-5.605 -12.498,-12.497 0,-6.892 5.606,-12.497 12.498,-12.497 6.891,0 12.497,5.605 12.497,12.497 C 12.497,-5.605 6.891,0 0,0 m 0,-25.821 c -7.347,0 -13.324,5.977 -13.324,13.324 0,7.347 5.977,13.324 13.324,13.324 7.347,0 13.323,-5.977 13.323,-13.324 0,-7.347 -5.976,-13.324 -13.323,-13.324"
             style="fill:#969e8d;fill-opacity:1;fill-rule:nonzero;stroke:none"
             id="path150"
             inkscape:connector-curvature="0" /></g><g
           id="g152"
           transform="translate(113.061,24.9131)"><path
             d="m 0,0 c -0.01,-0.649 0.489,-1 1.239,-1.199 0.56,0.189 0.99,0.589 0.99,1.178 0,0.52 -0.31,1.06 -1.1,1.06 C 0.399,1.039 0,0.56 0,0 m 2.419,-3.248 c 0,0.779 -0.55,1.169 -1.43,1.419 -0.76,-0.22 -1.169,-0.73 -1.169,-1.35 -0.03,-0.649 0.47,-1.229 1.299,-1.229 0.79,0 1.3,0.49 1.3,1.16 M 0.2,-1.52 c -0.729,0.34 -1.04,0.9 -1.04,1.459 0,1.031 0.87,1.73 2.02,1.73 1.258,0 1.898,-0.779 1.898,-1.6 0,-0.548 -0.279,-1.149 -1.079,-1.518 v -0.03 c 0.81,-0.32 1.31,-0.9 1.31,-1.679 0,-1.14 -0.97,-1.89 -2.209,-1.89 -1.36,0 -2.179,0.8 -2.179,1.749 0,0.82 0.489,1.409 1.289,1.749 z"
             style="fill:#2f3127;fill-opacity:1;fill-rule:nonzero;stroke:none"
             id="path154"
             inkscape:connector-curvature="0" /></g><g
           id="g156"
           transform="translate(121.0688,25.7324)"><path
             d="m 0,0 h -2.479 l -0.249,-1.669 c 0.15,0.02 0.29,0.03 0.53,0.03 0.51,0 0.999,-0.1 1.399,-0.35 0.51,-0.28 0.93,-0.85 0.93,-1.659 0,-1.269 -1.01,-2.219 -2.419,-2.219 -0.71,0 -1.3,0.2 -1.619,0.4 l 0.219,0.67 c 0.27,-0.16 0.8,-0.36 1.4,-0.36 0.819,0 1.539,0.54 1.529,1.409 0,0.84 -0.57,1.43 -1.859,1.43 -0.38,0 -0.67,-0.031 -0.909,-0.061 l 0.42,3.118 H 0 Z"
             style="fill:#2f3127;fill-opacity:1;fill-rule:nonzero;stroke:none"
             id="path158"
             inkscape:connector-curvature="0" /></g><g
           id="g160"
           transform="translate(124.7212,23.5039)"><path
             d="M 0,0 C 0,0.51 -0.02,0.909 -0.04,1.309 H 0.729 L 0.77,0.52 H 0.8 c 0.269,0.459 0.72,0.889 1.529,0.889 0.65,0 1.15,-0.4 1.359,-0.97 h 0.02 c 0.15,0.281 0.35,0.48 0.55,0.63 0.29,0.22 0.599,0.34 1.059,0.34 0.65,0 1.599,-0.42 1.599,-2.098 V -3.528 H 6.057 V -0.8 c 0,0.94 -0.35,1.489 -1.049,1.489 -0.51,0 -0.89,-0.37 -1.05,-0.79 C 3.918,-0.23 3.888,-0.38 3.888,-0.54 v -2.988 h -0.86 v 2.898 c 0,0.77 -0.34,1.319 -1.009,1.319 C 1.479,0.689 1.069,0.25 0.93,-0.19 0.88,-0.311 0.859,-0.47 0.859,-0.62 V -3.528 H 0 Z"
             style="fill:#2f3127;fill-opacity:1;fill-rule:nonzero;stroke:none"
             id="path162"
             inkscape:connector-curvature="0" /></g><g
           id="g164"
           transform="translate(133.061,23.5039)"><path
             d="M 0,0 C 0,0.51 -0.02,0.909 -0.04,1.309 H 0.729 L 0.77,0.52 H 0.8 c 0.269,0.459 0.72,0.889 1.529,0.889 0.65,0 1.15,-0.4 1.359,-0.97 h 0.02 c 0.15,0.281 0.35,0.48 0.55,0.63 0.29,0.22 0.599,0.34 1.059,0.34 0.65,0 1.599,-0.42 1.599,-2.098 V -3.528 H 6.057 V -0.8 c 0,0.94 -0.35,1.489 -1.049,1.489 -0.51,0 -0.89,-0.37 -1.05,-0.79 C 3.918,-0.23 3.888,-0.38 3.888,-0.54 v -2.988 h -0.86 v 2.898 c 0,0.77 -0.34,1.319 -1.009,1.319 C 1.479,0.689 1.069,0.25 0.93,-0.19 0.88,-0.311 0.859,-0.47 0.859,-0.62 V -3.528 H 0 Z"
             style="fill:#2f3127;fill-opacity:1;fill-rule:nonzero;stroke:none"
             id="path166"
             inkscape:connector-curvature="0" /></g><path
           d="m 246.615,12.105 h -1 v 10.001 h 1 z"
           style="fill:#2f3127;fill-opacity:1;fill-rule:nonzero;stroke:none"
           id="path168"
           inkscape:connector-curvature="0" /><path
           d="m 6.669,12.105 h -1 v 10.001 h 1 z"
           style="fill:#2f3127;fill-opacity:1;fill-rule:nonzero;stroke:none"
           id="path170"
           inkscape:connector-curvature="0" /><g
           id="g172"
           transform="translate(246.6147,17.1055)"><path
             d="M 0,0 H -240.945"
             style="fill:none;stroke:#2f3127;stroke-width:0.73400003;stroke-linecap:butt;stroke-linejoin:miter;stroke-miterlimit:4;stroke-dasharray:none;stroke-opacity:1"
             id="path174"
             inkscape:connector-curvature="0" /></g><g
           id="g176"
           transform="translate(113.061,39.0859)"><path
             d="m 0,0 c -0.01,-0.649 0.489,-1 1.239,-1.199 0.56,0.189 0.99,0.589 0.99,1.178 0,0.52 -0.31,1.06 -1.1,1.06 C 0.399,1.039 0,0.56 0,0 m 2.419,-3.248 c 0,0.779 -0.55,1.169 -1.43,1.419 -0.76,-0.22 -1.169,-0.73 -1.169,-1.35 -0.03,-0.649 0.47,-1.229 1.299,-1.229 0.79,0 1.3,0.49 1.3,1.16 M 0.2,-1.52 c -0.729,0.34 -1.04,0.9 -1.04,1.459 0,1.031 0.87,1.73 2.02,1.73 1.258,0 1.898,-0.779 1.898,-1.6 0,-0.548 -0.279,-1.149 -1.079,-1.518 v -0.03 c 0.81,-0.32 1.31,-0.9 1.31,-1.679 0,-1.14 -0.97,-1.89 -2.209,-1.89 -1.36,0 -2.179,0.8 -2.179,1.749 0,0.82 0.489,1.409 1.289,1.749 z"
             style="fill:#2f3127;fill-opacity:1;fill-rule:nonzero;stroke:none"
             id="path178"
             inkscape:connector-curvature="0" /></g><g
           id="g180"
           transform="translate(118.021,38.4961)"><path
             d="m 0,0 c 0,-0.81 0.489,-1.379 1.249,-1.379 0.59,0 1.05,0.289 1.279,0.68 0.05,0.09 0.08,0.179 0.08,0.329 0,1.109 -0.409,1.959 -1.338,1.959 C 0.529,1.589 0,0.93 0,0 m -0.32,-3.728 c 0.19,-0.02 0.41,0 0.71,0.03 0.509,0.07 0.989,0.27 1.359,0.63 0.43,0.389 0.739,0.96 0.859,1.718 H 2.578 C 2.219,-1.789 1.699,-2.039 1.039,-2.039 c -1.159,0 -1.908,0.88 -1.908,1.989 0,1.23 0.889,2.309 2.219,2.309 1.329,0 2.148,-1.07 2.148,-2.749 0,-1.419 -0.479,-2.418 -1.119,-3.038 -0.5,-0.49 -1.19,-0.789 -1.89,-0.869 -0.319,-0.05 -0.599,-0.061 -0.809,-0.05 z"
             style="fill:#2f3127;fill-opacity:1;fill-rule:nonzero;stroke:none"
             id="path182"
             inkscape:connector-curvature="0" /></g><g
           id="g184"
           transform="translate(124.7212,37.6768)"><path
             d="M 0,0 C 0,0.51 -0.02,0.909 -0.04,1.309 H 0.729 L 0.77,0.52 H 0.8 c 0.269,0.459 0.72,0.889 1.529,0.889 0.65,0 1.15,-0.4 1.359,-0.97 h 0.02 c 0.15,0.281 0.35,0.48 0.55,0.63 0.29,0.22 0.599,0.34 1.059,0.34 0.65,0 1.599,-0.42 1.599,-2.098 V -3.528 H 6.057 V -0.8 c 0,0.94 -0.35,1.489 -1.049,1.489 -0.51,0 -0.89,-0.37 -1.05,-0.79 C 3.918,-0.23 3.888,-0.38 3.888,-0.54 v -2.988 h -0.86 v 2.898 c 0,0.77 -0.34,1.319 -1.009,1.319 C 1.479,0.689 1.069,0.25 0.93,-0.19 0.88,-0.311 0.859,-0.47 0.859,-0.62 V -3.528 H 0 Z"
             style="fill:#2f3127;fill-opacity:1;fill-rule:nonzero;stroke:none"
             id="path186"
             inkscape:connector-curvature="0" /></g><g
           id="g188"
           transform="translate(133.061,37.6768)"><path
             d="M 0,0 C 0,0.51 -0.02,0.909 -0.04,1.309 H 0.729 L 0.77,0.52 H 0.8 c 0.269,0.459 0.72,0.889 1.529,0.889 0.65,0 1.15,-0.4 1.359,-0.97 h 0.02 c 0.15,0.281 0.35,0.48 0.55,0.63 0.29,0.22 0.599,0.34 1.059,0.34 0.65,0 1.599,-0.42 1.599,-2.098 V -3.528 H 6.057 V -0.8 c 0,0.94 -0.35,1.489 -1.049,1.489 -0.51,0 -0.89,-0.37 -1.05,-0.79 C 3.918,-0.23 3.888,-0.38 3.888,-0.54 v -2.988 h -0.86 v 2.898 c 0,0.77 -0.34,1.319 -1.009,1.319 C 1.479,0.689 1.069,0.25 0.93,-0.19 0.88,-0.311 0.859,-0.47 0.859,-0.62 V -3.528 H 0 Z"
             style="fill:#2f3127;fill-opacity:1;fill-rule:nonzero;stroke:none"
             id="path190"
             inkscape:connector-curvature="0" /></g><path
           d="m 252.284,26.278 h -1 v 10.001 h 1 z"
           style="fill:#2f3127;fill-opacity:1;fill-rule:nonzero;stroke:none"
           id="path192"
           inkscape:connector-curvature="0" /><path
           d="M 1,26.278 H 0 v 10.001 h 1 z"
           style="fill:#2f3127;fill-opacity:1;fill-rule:nonzero;stroke:none"
           id="path194"
           inkscape:connector-curvature="0" /><g
           id="g196"
           transform="translate(252.2837,31.2783)"><path
             d="M 0,0 H -252.284"
             style="fill:none;stroke:#2f3127;stroke-width:0.73400003;stroke-linecap:butt;stroke-linejoin:miter;stroke-miterlimit:4;stroke-dasharray:none;stroke-opacity:1"
             id="path198"
             inkscape:connector-curvature="0" /></g><g
           id="g200"
           transform="translate(226.5503,73.4189)"><path
             d="m 0,0 v -2.479 l 1.669,-0.25 c -0.02,0.151 -0.03,0.291 -0.03,0.531 0,0.51 0.1,0.999 0.35,1.399 0.28,0.51 0.85,0.93 1.659,0.93 1.269,0 2.219,-1.01 2.219,-2.419 0,-0.71 -0.2,-1.3 -0.4,-1.619 l -0.67,0.219 c 0.16,0.27 0.36,0.8 0.36,1.4 0,0.819 -0.54,1.539 -1.409,1.529 -0.84,0 -1.43,-0.57 -1.43,-1.859 0,-0.38 0.031,-0.67 0.061,-0.909 l -3.118,0.42 V 0 Z"
             style="fill:#2f3127;fill-opacity:1;fill-rule:nonzero;stroke:none"
             id="path202"
             inkscape:connector-curvature="0" /></g><g
           id="g204"
           transform="translate(226.5503,78.5488)"><path
             d="m 0,0 v -2.479 l 1.669,-0.249 c -0.02,0.15 -0.03,0.29 -0.03,0.53 0,0.51 0.1,0.999 0.35,1.399 0.28,0.51 0.85,0.93 1.659,0.93 1.269,0 2.219,-1.01 2.219,-2.419 0,-0.71 -0.2,-1.3 -0.4,-1.619 l -0.67,0.219 c 0.16,0.27 0.36,0.8 0.36,1.4 0,0.819 -0.54,1.539 -1.409,1.529 -0.84,0 -1.43,-0.57 -1.43,-1.859 0,-0.38 0.031,-0.67 0.061,-0.909 l -3.118,0.42 V 0 Z"
             style="fill:#2f3127;fill-opacity:1;fill-rule:nonzero;stroke:none"
             id="path206"
             inkscape:connector-curvature="0" /></g><g
           id="g208"
           transform="translate(228.7788,82.2012)"><path
             d="M 0,0 C -0.51,0 -0.909,-0.02 -1.309,-0.04 V 0.729 L -0.52,0.77 V 0.8 c -0.459,0.269 -0.889,0.72 -0.889,1.529 0,0.65 0.4,1.15 0.97,1.359 v 0.02 c -0.281,0.15 -0.48,0.35 -0.63,0.55 -0.22,0.29 -0.34,0.599 -0.34,1.059 0,0.65 0.42,1.599 2.098,1.599 H 3.528 V 6.057 H 0.8 c -0.94,0 -1.489,-0.35 -1.489,-1.049 0,-0.51 0.37,-0.89 0.79,-1.05 C 0.23,3.918 0.38,3.888 0.54,3.888 H 3.528 V 3.028 H 0.63 c -0.77,0 -1.319,-0.34 -1.319,-1.009 0,-0.54 0.439,-0.95 0.879,-1.089 C 0.311,0.88 0.47,0.859 0.62,0.859 H 3.528 V 0 Z"
             style="fill:#2f3127;fill-opacity:1;fill-rule:nonzero;stroke:none"
             id="path210"
             inkscape:connector-curvature="0" /></g><g
           id="g212"
           transform="translate(228.7788,90.541)"><path
             d="M 0,0 C -0.51,0 -0.909,-0.02 -1.309,-0.04 V 0.729 L -0.52,0.77 V 0.8 c -0.459,0.269 -0.889,0.72 -0.889,1.529 0,0.65 0.4,1.15 0.97,1.359 v 0.02 c -0.281,0.15 -0.48,0.35 -0.63,0.55 -0.22,0.29 -0.34,0.599 -0.34,1.059 0,0.65 0.42,1.599 2.098,1.599 H 3.528 V 6.057 H 0.8 c -0.94,0 -1.489,-0.35 -1.489,-1.049 0,-0.51 0.37,-0.89 0.79,-1.05 C 0.23,3.918 0.38,3.888 0.54,3.888 H 3.528 V 3.028 H 0.63 c -0.77,0 -1.319,-0.34 -1.319,-1.009 0,-0.54 0.439,-0.95 0.879,-1.089 C 0.311,0.88 0.47,0.859 0.62,0.859 H 3.528 V 0 Z"
             style="fill:#2f3127;fill-opacity:1;fill-rule:nonzero;stroke:none"
             id="path214"
             inkscape:connector-curvature="0" /></g><path
           d="m 240.176,5.669 h -10 v 1 h 10 z"
           style="fill:#2f3127;fill-opacity:1;fill-rule:nonzero;stroke:none"
           id="path216"
           inkscape:connector-curvature="0" /><path
           d="m 240.176,160.574 h -10 v 1 h 10 z"
           style="fill:#2f3127;fill-opacity:1;fill-rule:nonzero;stroke:none"
           id="path218"
           inkscape:connector-curvature="0" /><g
           id="g220"
           transform="translate(235.1763,161.5742)"><path
             d="M 0,0 V -155.905"
             style="fill:none;stroke:#2f3127;stroke-width:0.73400003;stroke-linecap:butt;stroke-linejoin:miter;stroke-miterlimit:4;stroke-dasharray:none;stroke-opacity:1"
             id="path222"
             inkscape:connector-curvature="0" /></g><g
           id="g224"
           transform="translate(212.3774,73.4189)"><path
             d="m 0,0 v -2.479 l 1.669,-0.25 c -0.02,0.151 -0.03,0.291 -0.03,0.531 0,0.51 0.1,0.999 0.35,1.399 0.28,0.51 0.85,0.93 1.659,0.93 1.269,0 2.219,-1.01 2.219,-2.419 0,-0.71 -0.2,-1.3 -0.4,-1.619 l -0.67,0.219 c 0.16,0.27 0.36,0.8 0.36,1.4 0,0.819 -0.54,1.539 -1.409,1.529 -0.84,0 -1.43,-0.57 -1.43,-1.859 0,-0.38 0.031,-0.67 0.061,-0.909 l -3.118,0.42 V 0 Z"
             style="fill:#2f3127;fill-opacity:1;fill-rule:nonzero;stroke:none"
             id="path226"
             inkscape:connector-curvature="0" /></g><g
           id="g228"
           transform="translate(213.7866,75.501)"><path
             d="m 0,0 c 0.81,0 1.379,0.489 1.379,1.249 0,0.59 -0.289,1.05 -0.68,1.279 C 0.609,2.578 0.52,2.608 0.37,2.608 -0.739,2.608 -1.589,2.199 -1.589,1.27 -1.589,0.529 -0.93,0 0,0 m 3.728,-0.32 c 0.02,0.19 0,0.41 -0.03,0.71 C 3.628,0.899 3.428,1.379 3.068,1.749 2.679,2.179 2.108,2.488 1.35,2.608 V 2.578 C 1.789,2.219 2.039,1.699 2.039,1.039 c 0,-1.159 -0.88,-1.908 -1.989,-1.908 -1.23,0 -2.309,0.889 -2.309,2.219 0,1.329 1.07,2.148 2.749,2.148 1.419,0 2.418,-0.479 3.038,-1.119 0.49,-0.5 0.789,-1.19 0.869,-1.89 0.05,-0.319 0.061,-0.599 0.05,-0.809 z"
             style="fill:#2f3127;fill-opacity:1;fill-rule:nonzero;stroke:none"
             id="path230"
             inkscape:connector-curvature="0" /></g><g
           id="g232"
           transform="translate(214.606,82.2012)"><path
             d="M 0,0 C -0.51,0 -0.909,-0.02 -1.309,-0.04 V 0.729 L -0.52,0.77 V 0.8 c -0.459,0.269 -0.889,0.72 -0.889,1.529 0,0.65 0.4,1.15 0.97,1.359 v 0.02 c -0.281,0.15 -0.48,0.35 -0.63,0.55 -0.22,0.29 -0.34,0.599 -0.34,1.059 0,0.65 0.42,1.599 2.098,1.599 H 3.528 V 6.057 H 0.8 c -0.94,0 -1.489,-0.35 -1.489,-1.049 0,-0.51 0.37,-0.89 0.79,-1.05 C 0.23,3.918 0.38,3.888 0.54,3.888 H 3.528 V 3.028 H 0.63 c -0.77,0 -1.319,-0.34 -1.319,-1.009 0,-0.54 0.439,-0.95 0.879,-1.089 C 0.311,0.88 0.47,0.859 0.62,0.859 H 3.528 V 0 Z"
             style="fill:#2f3127;fill-opacity:1;fill-rule:nonzero;stroke:none"
             id="path234"
             inkscape:connector-curvature="0" /></g><g
           id="g236"
           transform="translate(214.606,90.541)"><path
             d="M 0,0 C -0.51,0 -0.909,-0.02 -1.309,-0.04 V 0.729 L -0.52,0.77 V 0.8 c -0.459,0.269 -0.889,0.72 -0.889,1.529 0,0.65 0.4,1.15 0.97,1.359 v 0.02 c -0.281,0.15 -0.48,0.35 -0.63,0.55 -0.22,0.29 -0.34,0.599 -0.34,1.059 0,0.65 0.42,1.599 2.098,1.599 H 3.528 V 6.057 H 0.8 c -0.94,0 -1.489,-0.35 -1.489,-1.049 0,-0.51 0.37,-0.89 0.79,-1.05 C 0.23,3.918 0.38,3.888 0.54,3.888 H 3.528 V 3.028 H 0.63 c -0.77,0 -1.319,-0.34 -1.319,-1.009 0,-0.54 0.439,-0.95 0.879,-1.089 C 0.311,0.88 0.47,0.859 0.62,0.859 H 3.528 V 0 Z"
             style="fill:#2f3127;fill-opacity:1;fill-rule:nonzero;stroke:none"
             id="path238"
             inkscape:connector-curvature="0" /></g><path
           d="m 226.003,-0.001 h -10 v 1 h 10 z"
           style="fill:#2f3127;fill-opacity:1;fill-rule:nonzero;stroke:none"
           id="path240"
           inkscape:connector-curvature="0" /><path
           d="m 226.003,166.244 h -10 v 1 h 10 z"
           style="fill:#2f3127;fill-opacity:1;fill-rule:nonzero;stroke:none"
           id="path242"
           inkscape:connector-curvature="0" /><g
           id="g244"
           transform="translate(221.0034,167.2437)"><path
             d="M 0,0 V -167.244"
             style="fill:none;stroke:#2f3127;stroke-width:0.73400003;stroke-linecap:butt;stroke-linejoin:miter;stroke-miterlimit:4;stroke-dasharray:none;stroke-opacity:1"
             id="path246"
             inkscape:connector-curvature="0" /></g></g></g><path
       d="m 0,166.243 h 1 v 1 H 0 Z"
       style="fill:#f1511b;fill-opacity:1;fill-rule:nonzero;stroke:none"
       id="path248"
       inkscape:connector-curvature="0" /></g><g
     inkscape:groupmode="layer"
     id="layer1"
     inkscape:label="logo"
     style="display:inline"><g
       id="g1078"
       transform="matrix(0.45428003,0,0,0.45428003,119.32491,-49.57203)"><path
         inkscape:export-ydpi="29.916189"
         inkscape:export-xdpi="29.916189"
         sodipodi:nodetypes="ccccccc"
         inkscape:connector-curvature="0"
         id="rect8417-7"
         d="m 97.973385,322.78952 v 0 l -128.551364,38.24317 v 0 L -159.12936,322.78952 v 0 z"
         style="opacity:0.97600002;fill:#ff6906;fill-opacity:1;fill-rule:evenodd;stroke:#000000;stroke-width:2.46018577;stroke-linecap:square;stroke-linejoin:miter;stroke-miterlimit:100;stroke-dasharray:none;stroke-opacity:1;paint-order:normal" /><path
         inkscape:export-ydpi="29.916189"
         inkscape:export-xdpi="29.916189"
         sodipodi:nodetypes="ccccccc"
         inkscape:connector-curvature="0"
         id="rect8417-3-0"
         d="m -159.12935,399.27582 v 0 l 128.551371,-38.24313 v 0 l 128.551364,38.24313 v 0 z"
         style="opacity:0.97600002;fill:#ff6906;fill-opacity:1;fill-rule:evenodd;stroke:#000000;stroke-width:2.46018577;stroke-linecap:square;stroke-linejoin:miter;stroke-miterlimit:100;stroke-dasharray:none;stroke-opacity:1;paint-order:normal" /><text
         inkscape:export-ydpi="29.916189"
         inkscape:export-xdpi="29.916189"
         id="text8437-0-6"
         y="316.47815"
         x="-167.22662"
         style="font-style:normal;font-weight:normal;font-size:37.66110992px;line-height:23.53819275px;font-family:sans-serif;letter-spacing:0px;word-spacing:0px;fill:#000000;fill-opacity:1;stroke:none;stroke-width:0.94152778px;stroke-linecap:butt;stroke-linejoin:miter;stroke-opacity:1"
         xml:space="preserve"><tspan
           style="font-style:normal;font-variant:normal;font-weight:normal;font-stretch:normal;font-family:GonzalesSans;-inkscape-font-specification:GonzalesSans;stroke-width:0.94152778px"
           y="316.47815"
           x="-167.22662"
           id="tspan8435-3-9"
           sodipodi:role="line">Snake</tspan></text>
<text
         inkscape:export-ydpi="29.916189"
         inkscape:export-xdpi="29.916189"
         id="text8437-2"
         y="435.55518"
         x="-167.57814"
         style="font-style:normal;font-weight:normal;font-size:37.66110992px;line-height:23.53819275px;font-family:sans-serif;letter-spacing:0px;word-spacing:0px;fill:#000000;fill-opacity:1;stroke:none;stroke-width:0.94152778px;stroke-linecap:butt;stroke-linejoin:miter;stroke-opacity:1"
         xml:space="preserve"><tspan
           style="font-style:normal;font-variant:normal;font-weight:normal;font-stretch:normal;font-family:GonzalesSans;-inkscape-font-specification:GonzalesSans;letter-spacing:18.8794651px;stroke-width:0.94152778px"
           y="435.55518"
           x="-167.57814"
           id="tspan8435-1"
           sodipodi:role="line">Soft</tspan></text>
</g></g><g
     inkscape:groupmode="layer"
     id="layer2"
     inkscape:label="adresse"
     style="display:inline"><path
       style="fill:#000000;fill-rule:evenodd;stroke:#000000;stroke-width:1.28017151;stroke-linecap:butt;stroke-linejoin:miter;stroke-miterlimit:4;stroke-dasharray:none;stroke-opacity:1"
       d="M 198.42509,35.147307 V 78.892668"
       id="path1085"
       inkscape:connector-curvature="0" /><text
       xml:space="preserve"
       style="font-style:normal;font-weight:normal;font-size:40px;line-height:25px;font-family:sans-serif;letter-spacing:0px;word-spacing:0px;fill:#000000;fill-opacity:1;stroke:none;stroke-width:1px;stroke-linecap:butt;stroke-linejoin:miter;stroke-opacity:1"
       x="198.57744"
       y="145.11052"
       id="text1089"><tspan
         sodipodi:role="line"
         id="tspan1087"
         x="198.57744"
         y="168.00114"
         style="font-size:8px" /></text>
<path
       style="display:inline;fill:#000000;fill-rule:evenodd;stroke:#000000;stroke-width:2;stroke-linecap:butt;stroke-linejoin:miter;stroke-miterlimit:4;stroke-dasharray:none;stroke-opacity:1"
       d="M 381.22436,158.90964 V 265.68123"
       id="path1085-3"
       inkscape:connector-curvature="0" /><path
       style="display:inline;fill:#000000;fill-rule:evenodd;stroke:#000000;stroke-width:1.28017151;stroke-linecap:butt;stroke-linejoin:miter;stroke-miterlimit:4;stroke-dasharray:none;stroke-opacity:1"
       d="m 198.42509,158.89267 v 43.74536"
       id="path1085-5"
       inkscape:connector-curvature="0" /></g><g
     inkscape:groupmode="layer"
     id="layer5"
     inkscape:label="hilfslinien"
     style="display:none"><path
       style="display:inline;fill:#000000;fill-rule:evenodd;stroke:#000000;stroke-width:2.60020423;stroke-linecap:butt;stroke-linejoin:miter;stroke-miterlimit:4;stroke-dasharray:none;stroke-opacity:1"
       d="M 311.81085,18.897629 V 199.36997"
       id="path1085-3-6"
       inkscape:connector-curvature="0" /></g><g
     inkscape:groupmode="layer"
     id="layer4"
     inkscape:label="stadt"
     style="display:inline"><text
       xml:space="preserve"
       style="font-style:normal;font-weight:normal;font-size:40px;line-height:25px;font-family:sans-serif;letter-spacing:0px;word-spacing:0px;display:inline;fill:#000000;fill-opacity:1;stroke:none;stroke-width:1px;stroke-linecap:butt;stroke-linejoin:miter;stroke-opacity:1"
       x="204.28001"
       y="5.8887615"
       id="text1083"><tspan
         sodipodi:role="line"
         id="tspan1081"
         x="204.28001"
         y="28.779387"
         style="font-size:12px;line-height:0px" /><tspan
         sodipodi:role="line"
         x="204.28001"
         y="53.779388"
         style="font-size:8px;line-height:0px"
         id="tspan1091" /><tspan
         sodipodi:role="line"
         x="204.28001"
         y="78.779388"
         style="font-size:8px;line-height:0px;-inkscape-font-specification:'IBM 3270, ';font-family:'IBM 3270';font-weight:normal;font-style:normal;font-stretch:normal;font-variant:normal"
         id="tspan1097">DE 74078 - Heilbronn</tspan><tspan
         sodipodi:role="line"
         x="204.28001"
         y="103.77939"
         style="font-size:8px;line-height:0px"
         id="tspan1095" /><tspan
         sodipodi:role="line"
         x="204.28001"
         y="128.77939"
         style="font-size:12px;line-height:0px"
         id="tspan1093" /></text>
</g><g
     inkscape:groupmode="layer"
     id="layer3"
     inkscape:label="url"
     style="display:inline"><text
       xml:space="preserve"
       style="font-style:normal;font-weight:normal;font-size:40px;line-height:25px;font-family:sans-serif;letter-spacing:0px;word-spacing:0px;fill:#000000;fill-opacity:1;stroke:none;stroke-width:1px;stroke-linecap:butt;stroke-linejoin:miter;stroke-opacity:1"
       x="204.15318"
       y="45.691307"
       id="text1172"><tspan
         sodipodi:role="line"
         id="tspan1170"
         x="204.15318"
         y="45.691307"
         style="font-style:normal;font-variant:normal;font-weight:normal;font-stretch:normal;font-size:13.33333333px;line-height:0px;font-family:'IBM 3270';-inkscape-font-specification:'IBM 3270, '">snake-soft.com</tspan></text>
</g><g
     style="display:inline"
     inkscape:label="email"
     id="g1196"
     inkscape:groupmode="layer"><text
       id="text1194"
       y="185.44757"
       x="204.31126"
       style="font-style:normal;font-weight:normal;font-size:8px;line-height:25px;font-family:sans-serif;letter-spacing:0px;word-spacing:0px;fill:#000000;fill-opacity:1;stroke:none;stroke-width:1px;stroke-linecap:butt;stroke-linejoin:miter;stroke-opacity:1"
       xml:space="preserve"><tspan
         style="font-size:8px;line-height:0px;-inkscape-font-specification:'IBM 3270, ';font-family:'IBM 3270';font-weight:normal;font-style:normal;font-stretch:normal;font-variant:normal"
         y="185.44757"
         x="204.31126"
         id="tspan1192"
         sodipodi:role="line">info@snake-soft.com</tspan></text>
</g><g
     inkscape:groupmode="layer"
     id="g1202"
     inkscape:label="tel"
     style="display:inline"><text
       xml:space="preserve"
       style="font-style:normal;font-weight:normal;font-size:8px;line-height:25px;font-family:sans-serif;letter-spacing:0px;word-spacing:0px;fill:#000000;fill-opacity:1;stroke:none;stroke-width:1px;stroke-linecap:butt;stroke-linejoin:miter;stroke-opacity:1"
       x="204.21751"
       y="202.52475"
       id="text1200"><tspan
         sodipodi:role="line"
         id="tspan1198"
         x="204.21751"
         y="202.52475"
         style="font-size:8px;line-height:0px;-inkscape-font-specification:'IBM 3270, ';font-family:'IBM 3270';font-weight:normal;font-style:normal;font-stretch:normal;font-variant:normal">+49 157 50 888 555</tspan></text>
</g><g
     inkscape:groupmode="layer"
     id="layer6"
     inkscape:label="assistent"
     style="display:inline"><text
       xml:space="preserve"
       style="font-style:normal;font-weight:normal;font-size:8px;line-height:25px;font-family:sans-serif;letter-spacing:0px;word-spacing:0px;display:inline;fill:#000000;fill-opacity:1;stroke:none;stroke-width:1px;stroke-linecap:butt;stroke-linejoin:miter;stroke-opacity:1"
       x="204.63158"
       y="164.97079"
       id="text1200-5"><tspan
         sodipodi:role="line"
         id="tspan1198-0"
         x="204.63158"
         y="164.97079"
         style="font-size:8px;line-height:0px;-inkscape-font-specification:'IBM 3270, ';font-family:'IBM 3270';font-weight:normal;font-style:normal;font-stretch:normal;font-variant:normal">snake-soft.com<tspan
   style="font-size:12px"
   id="tspan1351">/assistent</tspan></tspan></text>
</g><g
     style="display:inline"
     inkscape:label="str"
     id="g1208"
     inkscape:groupmode="layer"><text
       id="text1206"
       y="62.299988"
       x="204.63318"
       style="font-style:normal;font-weight:normal;font-size:8px;line-height:25px;font-family:sans-serif;letter-spacing:0px;word-spacing:0px;fill:#000000;fill-opacity:1;stroke:none;stroke-width:1px;stroke-linecap:butt;stroke-linejoin:miter;stroke-opacity:1"
       xml:space="preserve"><tspan
         style="font-style:normal;font-variant:normal;font-weight:normal;font-stretch:normal;font-size:8px;line-height:0px;font-family:'IBM 3270';-inkscape-font-specification:'IBM 3270, '"
         y="62.299988"
         x="204.63318"
         id="tspan1204"
         sodipodi:role="line">Pater-Kolbe-Str. 24</tspan></text>
</g></svg>